<?xml version="1.0" standalone="no"?>
<!DOCTYPE svg PUBLIC "-//W3C//DTD SVG 20010904//EN"
 "http://www.w3.org/TR/2001/REC-SVG-20010904/DTD/svg10.dtd">
<svg version="1.0" xmlns="http://www.w3.org/2000/svg"
 width="3264.000000pt" height="3264.000000pt" viewBox="0 0 3264.000000 3264.000000"
 preserveAspectRatio="xMidYMid meet">

<g transform="translate(0.000000,3264.000000) scale(0.100000,-0.100000)"
fill="#000000" stroke="none">
<path d="M22476 30910 c-395 -10 -485 -18 -605 -53 -63 -19 -90 -32 -104 -51
-27 -38 -91 -72 -197 -107 -84 -27 -169 -68 -196 -94 -5 -5 -56 -65 -112 -132
-57 -68 -114 -134 -128 -148 -48 -48 -76 -129 -90 -259 -15 -139 -28 -208 -54
-291 -10 -33 -21 -73 -25 -90 -3 -16 -17 -66 -31 -111 -50 -161 -59 -316 -59
-969 0 -766 14 -1156 60 -1620 8 -77 16 -174 20 -215 3 -41 8 -91 10 -110 13
-99 45 -581 60 -895 21 -471 25 -743 28 -1975 3 -1899 -6 -3676 -21 -3870 -6
-85 -19 -279 -27 -430 -9 -151 -20 -342 -25 -425 -14 -210 -19 -285 -25 -405
-7 -134 -8 -588 -1 -620 3 -14 8 -79 11 -145 3 -66 8 -149 10 -185 3 -36 7
-121 10 -190 3 -69 9 -228 15 -355 5 -126 12 -300 15 -385 4 -85 10 -218 16
-295 12 -193 18 -463 24 -1133 6 -628 8 -604 -55 -676 -52 -59 -74 -66 -206
-66 -94 0 -135 5 -213 26 -53 15 -108 32 -122 40 -24 12 -65 55 -118 125 -14
17 -54 50 -91 74 -50 32 -76 58 -109 108 -27 43 -59 77 -90 96 -57 37 -88 70
-134 142 -22 36 -56 71 -94 98 -40 28 -69 59 -93 98 -45 77 -73 110 -125 150
-24 18 -58 58 -76 90 -46 82 -94 149 -160 220 -32 35 -74 95 -95 138 -29 59
-53 89 -108 139 -52 46 -80 82 -105 130 -23 47 -51 82 -100 125 -53 47 -77 78
-110 143 -23 46 -71 116 -107 158 -41 47 -84 111 -114 171 -36 72 -60 105 -95
134 -70 57 -83 73 -127 158 -29 55 -56 91 -95 124 -46 39 -65 67 -115 168 -47
94 -74 134 -123 185 -43 44 -75 90 -101 144 -26 53 -51 89 -78 110 -70 56 -91
83 -134 170 -23 48 -61 108 -85 134 -67 74 -95 115 -136 204 -32 69 -49 93
-104 141 -53 46 -76 77 -112 145 -30 59 -63 105 -102 143 -49 47 -66 74 -107
167 -44 99 -57 119 -118 177 -51 49 -77 83 -103 139 -21 44 -52 90 -77 113
-82 76 -98 98 -134 182 -48 114 -64 139 -134 210 -40 40 -71 84 -94 133 -39
81 -51 98 -114 147 -35 27 -54 57 -98 147 -39 82 -71 132 -114 179 -32 36 -71
92 -86 123 -53 115 -60 125 -98 156 -73 58 -98 90 -140 180 -27 56 -67 120
-106 166 -40 47 -79 108 -106 166 -35 77 -51 99 -108 148 -46 41 -73 75 -92
115 -52 111 -60 124 -115 187 -57 64 -116 166 -139 237 -8 25 -34 57 -81 99
-56 51 -78 79 -112 148 -29 59 -60 102 -100 141 -44 44 -69 81 -107 160 -27
57 -50 109 -50 115 0 7 -31 40 -69 73 -56 50 -78 78 -113 148 -33 66 -56 97
-102 137 -51 44 -66 67 -112 163 -42 89 -67 127 -119 183 -36 39 -78 96 -93
128 -39 81 -65 115 -121 156 -39 29 -59 55 -96 128 -29 55 -71 116 -105 153
-41 45 -75 96 -116 179 -51 104 -64 122 -113 160 -46 34 -64 58 -101 129 -30
59 -66 109 -110 155 -61 62 -69 76 -109 184 -34 92 -52 125 -84 157 -22 23
-44 41 -49 41 -15 0 -67 92 -89 159 -32 96 -56 139 -111 200 -53 58 -76 98
-109 188 -26 70 -47 101 -114 173 -45 48 -56 69 -88 164 -40 121 -61 156 -117
201 -53 43 -89 96 -105 157 -30 117 -57 172 -105 218 -60 57 -94 110 -119 182
-26 75 -62 135 -106 178 -43 41 -73 97 -105 195 -29 87 -56 132 -111 179 -60
51 -75 76 -115 205 -36 113 -37 115 -109 185 -61 61 -76 82 -100 146 -43 115
-71 165 -126 227 -29 31 -62 81 -76 112 -57 135 -86 182 -134 222 -55 46 -94
119 -130 243 -21 73 -28 84 -94 150 -39 39 -88 102 -110 140 -26 44 -58 84
-90 109 -27 21 -69 64 -92 95 -24 32 -78 91 -121 132 -42 41 -98 98 -123 125
-25 28 -74 77 -110 110 -35 33 -83 80 -105 105 -23 25 -103 104 -179 175 -75
72 -178 171 -228 222 -51 50 -111 103 -133 118 -23 14 -61 48 -83 76 -50 58
-106 92 -181 109 -30 7 -111 39 -180 72 -69 34 -138 65 -155 70 -193 58 -1096
45 -1335 -18 -294 -79 -486 -118 -625 -128 -44 -3 -165 -8 -270 -11 -316 -10
-484 -38 -648 -109 -157 -69 -302 -95 -575 -106 -224 -9 -272 -12 -412 -31
-85 -12 -202 -42 -258 -67 -21 -9 -58 -34 -83 -54 -25 -21 -79 -53 -120 -72
-41 -18 -81 -42 -91 -52 -21 -25 -47 -191 -54 -353 -5 -110 -3 -136 16 -206
32 -118 61 -294 70 -430 4 -66 24 -228 43 -360 70 -463 97 -739 97 -995 0
-184 18 -439 40 -573 11 -68 41 -180 69 -265 27 -81 60 -203 73 -272 22 -120
23 -143 23 -615 0 -510 -3 -557 -47 -765 -11 -52 -35 -138 -54 -190 -69 -199
-89 -340 -104 -745 -14 -398 -31 -547 -105 -920 -41 -204 -45 -276 -40 -755 3
-250 6 -464 9 -475 2 -11 7 -67 10 -125 4 -58 9 -121 11 -140 2 -19 7 -78 10
-130 13 -223 21 -333 30 -460 15 -191 42 -753 70 -1430 4 -107 20 -2473 18
-2845 -1 -456 -14 -1820 -18 -1915 -22 -540 -67 -1060 -115 -1335 -65 -375
-87 -977 -67 -1835 14 -560 32 -874 67 -1125 36 -263 71 -621 90 -935 6 -96
15 -242 20 -323 6 -82 10 -619 10 -1193 0 -1081 -5 -1234 -50 -1694 -20 -196
-62 -514 -80 -595 -43 -198 -72 -871 -86 -1993 -5 -481 -5 -493 15 -525 41
-67 54 -72 226 -96 200 -28 372 -57 450 -77 100 -25 349 -53 621 -69 142 -8
329 -22 414 -31 86 -9 338 -20 565 -24 226 -5 435 -12 465 -14 30 -3 96 -8
145 -11 200 -13 300 -29 485 -75 314 -78 499 -95 1025 -94 549 2 648 9 736 52
116 58 152 84 266 195 89 86 120 124 146 176 l32 65 4 331 c5 365 5 430 -5
1625 -4 459 -7 966 -6 1125 1 647 0 1672 -1 2015 -1 201 2 491 7 645 5 154 10
406 11 560 3 309 -5 252 85 608 19 74 20 110 19 595 0 285 -4 546 -9 582 -4
36 -11 102 -15 147 -3 46 -8 91 -9 100 -2 10 -7 65 -10 123 -4 58 -9 130 -11
160 -2 30 -7 102 -10 160 -4 58 -13 170 -22 250 -13 116 -17 311 -20 970 -7
1200 -7 1695 0 2145 3 268 1 486 -8 660 -13 252 -12 749 1 959 9 138 8 701 -3
996 -13 381 9 844 45 935 49 127 245 311 317 298 11 -2 62 -13 114 -25 124
-29 143 -47 201 -198 41 -105 50 -119 111 -180 36 -36 73 -79 82 -95 8 -17 29
-87 46 -155 28 -116 34 -127 68 -158 86 -75 104 -95 133 -151 30 -60 67 -103
136 -157 22 -18 55 -59 72 -92 22 -40 56 -82 101 -122 43 -38 84 -86 108 -127
22 -39 62 -87 97 -117 32 -28 76 -77 97 -108 22 -32 89 -108 149 -170 66 -69
122 -136 141 -172 19 -36 43 -65 62 -75 53 -28 114 -90 137 -139 27 -57 61
-95 117 -127 46 -27 77 -66 109 -135 19 -42 44 -67 124 -128 16 -13 48 -54 69
-90 40 -68 70 -101 128 -141 18 -12 45 -43 60 -69 33 -57 92 -131 155 -193 26
-26 74 -89 107 -140 64 -101 75 -114 144 -171 29 -24 57 -62 79 -105 24 -48
47 -77 79 -100 89 -65 98 -75 126 -130 31 -65 78 -123 99 -123 22 0 93 -77
114 -123 23 -52 54 -86 110 -123 28 -19 61 -57 95 -109 29 -45 81 -110 117
-146 35 -35 94 -107 131 -160 37 -53 84 -112 104 -130 54 -49 96 -105 131
-175 18 -36 40 -65 55 -71 51 -23 101 -79 133 -148 37 -77 61 -108 116 -148
38 -28 68 -81 129 -232 18 -44 44 -89 58 -100 63 -52 101 -100 126 -163 37
-93 61 -129 107 -159 47 -32 73 -74 129 -217 29 -72 51 -114 67 -125 70 -47
103 -88 137 -171 30 -73 45 -95 103 -150 65 -62 71 -71 117 -188 46 -119 50
-124 106 -168 46 -35 64 -58 89 -112 55 -116 61 -126 125 -189 56 -55 68 -74
104 -167 23 -57 41 -109 41 -114 0 -6 16 -23 35 -38 19 -16 50 -41 67 -56 18
-14 40 -41 49 -60 9 -18 33 -68 53 -110 25 -52 49 -87 76 -108 51 -41 77 -83
121 -205 33 -89 42 -104 80 -132 84 -62 105 -88 133 -164 31 -86 64 -139 110
-180 39 -34 85 -118 117 -214 17 -51 33 -78 62 -105 101 -92 113 -107 141
-180 38 -101 71 -155 127 -215 48 -52 77 -101 99 -170 18 -57 44 -90 105 -135
55 -41 56 -42 141 -228 29 -63 49 -93 85 -123 43 -36 86 -105 104 -169 14 -47
47 -91 100 -130 39 -29 63 -58 94 -114 28 -52 60 -92 106 -133 37 -31 76 -73
88 -93 12 -19 67 -82 122 -140 64 -68 122 -142 160 -204 35 -58 71 -104 86
-112 37 -19 77 -69 110 -137 32 -68 53 -93 94 -114 53 -27 86 -66 126 -150 32
-67 49 -89 95 -125 48 -37 65 -59 114 -153 41 -78 76 -129 120 -175 56 -57
120 -162 120 -196 0 -11 58 -66 119 -112 18 -14 46 -55 67 -99 27 -57 54 -94
105 -144 69 -68 77 -80 162 -270 19 -44 34 -62 66 -80 48 -26 62 -45 116 -154
33 -65 51 -87 97 -123 53 -40 62 -53 127 -187 39 -80 74 -145 79 -145 27 0 92
-85 121 -158 32 -79 56 -109 132 -165 27 -19 50 -53 84 -123 30 -62 68 -119
102 -156 68 -74 108 -136 129 -202 20 -61 42 -87 110 -131 46 -30 57 -45 98
-128 38 -76 58 -104 105 -145 48 -42 69 -72 126 -181 38 -74 76 -133 86 -136
30 -10 90 -84 116 -144 13 -31 28 -63 32 -71 4 -8 39 -36 78 -62 64 -42 74
-54 108 -122 35 -71 62 -103 130 -149 14 -11 46 -50 70 -87 24 -37 61 -81 81
-97 21 -15 56 -47 79 -71 22 -23 60 -64 85 -90 25 -26 70 -62 101 -79 36 -20
69 -50 93 -83 57 -79 78 -85 361 -101 565 -33 1125 0 1302 77 86 37 185 67
298 90 109 23 153 26 495 34 459 11 619 30 720 86 156 86 246 114 463 143 168
22 195 34 252 114 19 26 57 63 85 83 60 43 86 84 94 149 11 88 15 865 6 1010
-13 203 -25 307 -67 590 -45 310 -52 368 -63 570 -11 217 -13 241 -35 480 -8
88 -20 255 -26 370 -14 239 -18 1198 -6 1530 4 121 7 434 6 695 -3 671 0 1497
7 1615 3 55 11 177 19 270 8 94 21 278 30 410 9 132 22 285 30 340 22 157 33
338 40 643 4 155 8 293 10 305 2 12 6 85 9 162 4 77 9 169 11 205 3 36 7 124
10 195 3 72 14 301 25 510 29 590 30 606 32 1205 2 811 11 994 64 1344 24 161
33 264 49 531 23 401 47 780 60 935 28 358 37 636 28 915 -14 469 -4 1658 14
1688 3 5 6 455 8 1000 2 546 6 1060 10 1142 4 107 2 188 -9 280 -8 72 -27 231
-40 355 -32 275 -51 389 -83 500 -31 103 -59 234 -68 315 -3 33 -8 74 -10 90
-39 307 -41 1487 -4 2125 10 172 10 207 -5 294 -49 287 -72 1396 -41 1976 14
263 12 648 -5 840 -17 193 -59 327 -114 363 -13 9 -39 45 -56 81 -32 64 -33
71 -60 321 -18 164 -40 237 -86 288 -22 23 -48 62 -58 87 -91 219 -200 331
-362 371 -72 18 -145 52 -185 86 -107 94 -254 117 -814 128 -532 10 -2082 13
-2419 5z m1533 -844 c18 -13 44 -39 58 -58 29 -39 26 -82 -12 -166 -56 -121
-139 -197 -266 -242 -95 -34 -121 -55 -140 -112 -13 -41 -56 -78 -90 -78 -21
0 -157 -44 -220 -71 -31 -14 -56 -34 -73 -59 -30 -46 -85 -79 -180 -110 -86
-28 -125 -50 -196 -111 -58 -50 -108 -75 -205 -104 -83 -24 -105 -36 -171 -99
-69 -66 -92 -78 -220 -112 -122 -32 -160 -51 -229 -114 -31 -28 -64 -50 -74
-50 -44 0 -214 51 -227 67 -11 14 -13 102 -14 441 0 402 1 425 20 462 11 21
31 74 46 117 42 126 54 143 129 182 34 17 77 23 260 36 337 23 544 53 680 97
185 59 565 104 916 107 171 1 176 0 208 -23z m1301 -4 c35 -18 67 -44 90 -75
20 -26 61 -64 91 -83 66 -43 83 -63 118 -139 28 -60 57 -94 126 -149 53 -42
65 -74 76 -198 11 -124 2 -172 -50 -277 -30 -61 -72 -255 -92 -431 -20 -180
-13 -899 12 -1213 5 -64 11 -204 14 -310 10 -365 15 -454 30 -563 9 -60 18
-122 20 -139 4 -29 9 -142 20 -495 3 -91 12 -228 20 -305 29 -286 36 -505 33
-965 -2 -256 0 -611 5 -790 4 -179 9 -417 12 -530 3 -113 8 -284 11 -380 4
-97 4 -196 0 -221 -9 -62 -51 -124 -102 -151 l-42 -22 -99 19 c-108 22 -287
24 -443 5 -145 -17 -145 -17 -282 -86 -134 -67 -218 -90 -378 -103 -175 -15
-258 -42 -355 -115 -66 -51 -164 -83 -304 -101 -137 -17 -189 -36 -265 -94
-28 -21 -65 -46 -82 -54 -59 -30 -177 -56 -298 -67 -66 -6 -170 -22 -231 -35
-60 -14 -116 -25 -125 -25 -8 -1 -31 -9 -50 -20 -125 -67 -146 -72 -175 -40
-17 19 -17 21 1 62 10 23 29 55 42 69 12 15 26 47 31 72 11 63 35 93 210 265
266 262 304 297 366 339 33 23 84 68 113 102 32 37 80 76 122 101 56 33 77 52
110 104 32 49 53 70 93 91 65 35 147 113 147 140 0 34 28 63 78 79 57 20 136
85 162 135 12 25 34 45 65 61 83 43 280 226 359 335 17 22 54 64 83 94 79 79
99 125 108 250 5 68 3 142 -6 215 -12 107 -14 112 -50 149 -36 37 -38 37 -120
38 -150 3 -165 2 -263 -16 -89 -16 -101 -21 -149 -61 -77 -66 -138 -92 -272
-115 -65 -11 -130 -26 -145 -34 -14 -7 -53 -41 -85 -74 -62 -64 -72 -69 -242
-121 -101 -30 -103 -31 -143 -85 -52 -71 -106 -101 -211 -120 -151 -27 -178
-41 -202 -107 -7 -20 -81 -71 -128 -88 -49 -18 -78 -8 -135 44 l-49 44 21 29
c31 43 107 90 158 97 48 8 86 41 86 77 0 37 71 93 155 123 122 44 154 63 220
131 49 51 75 68 144 96 58 24 92 44 113 69 72 86 100 108 171 135 125 48 170
76 221 132 37 42 71 66 134 96 83 41 103 56 174 134 22 25 72 60 126 88 58 29
117 71 167 117 43 39 115 94 160 123 63 41 89 65 110 102 31 52 121 169 149
192 25 21 64 101 81 167 15 59 13 182 -6 384 -13 134 -34 174 -138 262 -109
92 -131 102 -205 94 -139 -14 -166 -20 -266 -52 -126 -42 -237 -70 -305 -79
-27 -4 -59 -8 -71 -10 -11 -2 -85 -6 -165 -10 -292 -14 -427 -39 -534 -100
-159 -91 -259 -113 -613 -135 -180 -11 -204 -7 -254 47 -44 46 -46 83 -7 127
37 43 59 55 168 95 83 30 110 46 197 116 27 23 88 56 135 75 73 29 93 43 154
106 54 57 85 79 135 100 90 38 158 83 219 144 33 33 78 64 125 85 48 23 84 48
107 75 19 22 49 58 67 79 18 21 57 50 86 64 52 25 85 53 169 144 21 23 66 56
100 74 83 43 187 109 187 118 0 21 86 91 156 126 64 33 85 49 110 88 45 69 70
93 123 117 57 27 97 64 122 111 19 38 94 109 114 109 21 0 90 74 118 128 17
33 43 63 68 80 59 39 119 93 119 106 0 6 21 55 48 108 54 111 57 94 -41 215
-73 91 -81 97 -197 135 -94 30 -98 31 -300 31 -233 0 -266 -7 -395 -83 -69
-40 -188 -81 -335 -115 -107 -25 -160 -50 -207 -98 -51 -53 -102 -80 -200
-108 -102 -28 -167 -62 -224 -114 -54 -50 -97 -74 -194 -105 -103 -33 -194
-79 -212 -107 -22 -34 -90 -78 -149 -97 -27 -9 -98 -20 -159 -25 -99 -8 -114
-7 -148 10 -34 18 -73 66 -90 111 -10 27 51 99 109 130 48 26 94 71 153 148
13 17 55 47 94 67 43 21 98 61 137 99 52 50 90 75 184 120 101 49 122 63 154
105 40 54 80 84 157 118 59 26 100 63 125 112 21 41 44 58 115 84 119 43 183
83 225 140 42 57 84 85 159 105 64 17 117 56 134 98 24 58 53 76 197 121 l135
42 70 72 c42 44 84 77 105 84 19 6 86 26 148 43 103 30 117 37 155 77 23 25
65 57 92 71 50 26 55 27 275 40 14 1 50 -11 80 -26z m-16459 -848 c136 -18
192 -39 250 -97 54 -53 79 -66 199 -98 136 -36 181 -58 211 -101 39 -58 93
-109 139 -133 55 -28 89 -64 125 -133 19 -35 46 -65 79 -89 66 -47 80 -64 122
-148 22 -44 57 -92 93 -127 51 -50 63 -70 102 -169 41 -105 49 -117 119 -188
55 -55 81 -90 94 -126 27 -72 63 -133 114 -190 64 -71 98 -128 123 -204 29
-89 63 -144 110 -182 54 -43 82 -97 114 -219 33 -128 42 -146 100 -201 68 -64
82 -93 110 -225 29 -131 45 -165 116 -239 55 -58 78 -105 108 -229 27 -108 47
-150 106 -216 59 -66 81 -111 111 -228 33 -127 52 -168 106 -229 32 -36 53
-73 72 -129 16 -44 35 -98 43 -122 18 -51 52 -93 97 -121 44 -28 78 -80 106
-166 32 -100 75 -190 108 -233 33 -42 72 -115 72 -135 0 -24 -73 -83 -170
-138 -52 -29 -117 -74 -145 -99 -68 -62 -89 -75 -186 -106 -109 -35 -151 -57
-203 -104 -52 -48 -140 -92 -226 -114 -76 -20 -138 -54 -200 -111 -46 -43
-107 -71 -221 -100 -82 -21 -144 -54 -199 -105 -58 -55 -74 -62 -220 -105
-143 -42 -169 -54 -232 -106 -66 -55 -127 -83 -267 -124 -141 -40 -171 -54
-226 -105 -61 -55 -136 -86 -275 -116 -68 -14 -134 -30 -145 -36 -11 -6 -46
-35 -78 -65 -76 -69 -94 -78 -235 -112 -64 -15 -128 -34 -141 -41 -14 -7 -55
-41 -92 -76 -71 -67 -91 -75 -245 -109 -101 -22 -141 -43 -213 -109 -62 -57
-105 -75 -268 -115 -96 -24 -150 -49 -202 -96 -49 -45 -127 -80 -221 -101
-170 -37 -240 -63 -289 -108 -64 -60 -120 -86 -220 -101 -47 -7 -107 -20 -132
-29 -86 -30 -118 -5 -119 90 0 55 3 63 33 91 17 18 68 50 112 72 45 23 113 71
155 108 67 60 174 123 209 123 7 0 55 42 105 94 88 90 94 94 176 121 130 42
182 70 210 112 34 50 98 88 199 119 132 40 174 61 213 107 42 50 97 79 214
113 106 31 181 68 208 102 32 40 104 80 195 108 109 33 175 66 228 115 49 45
97 71 178 94 82 23 144 57 185 100 42 45 100 75 200 105 123 37 128 40 204
115 66 65 80 74 147 94 187 56 178 51 236 118 54 61 64 68 208 134 28 12 77
48 110 79 33 31 103 83 155 116 133 83 129 79 199 183 35 52 87 125 116 162
28 37 62 95 75 128 22 61 23 62 4 104 -44 102 -106 170 -192 210 -63 30 -74
32 -187 33 -106 1 -196 -7 -317 -30 -22 -4 -55 -23 -85 -50 -74 -66 -122 -86
-259 -107 -142 -21 -179 -37 -268 -118 -62 -55 -70 -59 -173 -85 -142 -36
-178 -54 -249 -119 -75 -69 -82 -72 -209 -102 -127 -30 -168 -50 -240 -115
-67 -60 -85 -70 -206 -108 -139 -43 -173 -65 -222 -144 -33 -52 -106 -68 -472
-103 -278 -27 -274 -26 -332 -78 -56 -50 -113 -76 -195 -87 -40 -6 -94 -21
-120 -34 -42 -22 -48 -23 -60 -9 -6 8 -14 43 -16 77 -5 72 -4 72 108 136 34
19 78 54 98 78 81 96 152 159 220 195 52 27 80 51 107 87 46 63 83 94 150 126
51 24 75 46 138 128 18 23 57 51 109 77 53 26 99 59 132 94 62 63 104 91 219
140 73 31 93 45 117 80 39 57 81 91 156 126 38 18 77 46 99 72 75 87 88 98
183 146 59 31 126 76 171 116 44 39 108 82 156 106 67 33 90 51 131 102 37 46
68 72 124 103 56 31 86 55 121 100 25 32 61 69 80 81 90 58 110 76 148 131 22
33 63 76 90 95 61 44 94 92 116 172 9 33 30 86 46 119 26 53 29 67 29 162 l0
104 -32 20 c-76 47 -135 60 -282 66 -77 3 -222 15 -321 26 -213 25 -202 25
-335 14 -165 -13 -330 -41 -383 -66 -26 -12 -70 -42 -96 -66 -54 -49 -116 -79
-231 -114 -69 -20 -80 -28 -150 -99 -70 -72 -81 -79 -165 -108 -145 -51 -163
-61 -195 -106 -41 -57 -89 -91 -171 -122 -49 -19 -76 -37 -96 -62 -55 -69
-102 -111 -140 -123 -88 -29 -195 -92 -247 -145 -38 -39 -75 -65 -132 -91 -85
-38 -120 -66 -165 -131 -21 -30 -42 -46 -76 -59 -149 -54 -233 -97 -253 -129
-33 -54 -95 -103 -151 -119 -69 -21 -131 -58 -163 -98 -56 -71 -82 -87 -191
-121 -84 -26 -336 -68 -369 -61 -52 11 -94 43 -115 88 -46 95 -11 163 123 238
45 25 70 48 101 93 28 42 57 69 95 92 87 50 130 82 137 101 15 40 57 82 116
112 84 45 115 69 139 108 49 80 94 93 378 113 145 9 174 14 236 40 39 16 89
45 110 63 58 49 121 81 220 111 85 26 92 30 154 96 58 61 75 73 155 105 161
63 166 66 205 119 51 68 63 77 153 120 60 28 84 46 106 79 39 56 87 98 147
127 27 13 76 52 109 86 34 34 90 83 126 109 89 65 229 203 306 302 36 45 73
88 83 95 35 24 90 118 111 190 20 66 52 138 81 178 8 12 5 37 -16 110 -14 52
-26 101 -26 109 0 20 -62 80 -122 117 -45 29 -50 30 -165 28 -65 -1 -158 -9
-208 -18 -49 -9 -135 -19 -190 -23 -99 -6 -295 -37 -340 -54 -12 -5 -46 -29
-74 -54 -28 -25 -68 -54 -89 -65 -34 -17 -133 -40 -242 -56 -55 -9 -133 -52
-179 -99 -39 -40 -103 -67 -230 -97 -105 -24 -180 -58 -238 -106 -68 -55 -134
-82 -292 -118 -182 -41 -185 -43 -246 -97 -28 -25 -72 -57 -100 -70 -69 -35
-248 -64 -445 -71 -71 -3 -139 35 -180 100 l-29 45 26 39 c27 41 56 62 153
111 41 20 69 43 89 71 38 56 63 77 141 120 36 19 90 61 120 92 30 32 93 83
140 114 47 31 124 93 171 138 50 47 112 94 147 112 33 17 70 44 83 61 66 86
97 115 154 141 59 27 96 59 149 131 20 29 52 50 130 87 67 32 125 69 167 106
80 70 111 87 230 121 100 28 197 72 219 99 43 51 164 95 290 105 188 14 542
11 671 -6z m-2412 -200 c60 -17 135 -80 145 -120 5 -17 0 -36 -14 -59 -23 -38
-125 -135 -167 -160 -16 -9 -41 -34 -56 -56 -34 -47 -72 -77 -156 -120 -49
-26 -71 -45 -93 -80 -31 -51 -82 -91 -144 -113 -73 -25 -118 -53 -169 -105
-27 -28 -55 -51 -62 -51 -7 0 -30 16 -52 35 -38 34 -39 38 -51 134 -7 54 -10
113 -6 132 10 52 53 138 90 179 32 36 53 86 91 222 17 63 59 119 109 146 57
30 447 43 535 16z m17786 -665 c38 -34 65 -86 65 -126 0 -38 -49 -124 -99
-175 -25 -25 -65 -68 -87 -95 -28 -32 -69 -63 -121 -92 -51 -27 -94 -59 -117
-87 -65 -77 -98 -93 -242 -113 -150 -22 -220 -46 -293 -101 -70 -51 -177 -86
-326 -106 -66 -8 -133 -20 -148 -26 -16 -6 -61 -40 -99 -76 -77 -70 -130 -98
-253 -131 -84 -23 -112 -43 -151 -103 -32 -50 -71 -84 -124 -109 -69 -33 -99
-57 -121 -100 -26 -53 -87 -119 -108 -119 -20 0 -60 40 -90 90 -20 34 -21 48
-21 373 0 308 2 346 20 419 22 84 33 109 64 146 l20 22 40 -39 c23 -22 61 -50
86 -63 41 -21 58 -23 185 -23 164 0 209 12 311 82 84 57 157 87 265 108 168
33 210 50 264 106 66 67 103 85 249 118 144 33 148 35 227 106 33 29 79 61
102 69 23 9 118 27 211 41 93 14 172 27 174 30 3 3 22 5 43 5 29 0 47 -8 74
-31z m-16308 -786 c-16 -17 -67 -11 -67 8 0 16 43 28 64 17 16 -9 17 -12 3
-25z m-205 -105 c13 -9 30 -34 36 -57 11 -34 10 -44 -2 -64 -19 -29 -63 -62
-96 -72 -71 -22 -186 -91 -238 -142 -40 -39 -84 -69 -147 -99 -75 -36 -100
-54 -152 -112 -49 -55 -73 -73 -120 -91 -91 -35 -174 -85 -223 -136 -28 -29
-78 -63 -131 -90 -82 -41 -105 -62 -171 -148 -17 -22 -54 -48 -95 -68 -108
-52 -202 -110 -223 -137 -34 -43 -93 -81 -160 -103 -62 -21 -150 -74 -150 -90
0 -17 -61 -77 -89 -89 -39 -16 -83 -1 -145 46 l-46 35 0 117 c0 65 4 153 10
197 5 44 14 144 19 222 11 171 21 195 110 283 36 36 79 82 94 103 42 57 107
84 250 106 130 19 179 38 284 105 60 38 201 71 343 81 183 13 260 36 384 114
107 68 149 81 306 95 192 16 321 14 352 -6z m1308 -1153 l34 -35 -30 -31 c-16
-16 -47 -39 -69 -49 -60 -28 -74 -43 -109 -112 -36 -74 -74 -103 -211 -163
-70 -30 -106 -54 -161 -106 -42 -39 -88 -72 -110 -79 -76 -25 -133 -60 -186
-115 -29 -31 -65 -63 -81 -71 -15 -8 -71 -56 -125 -107 -53 -51 -126 -117
-162 -147 -36 -30 -101 -88 -145 -130 -44 -42 -111 -99 -150 -126 -38 -27 -97
-77 -129 -112 -33 -35 -80 -74 -105 -87 -51 -25 -83 -54 -133 -120 -18 -24
-64 -62 -102 -86 -49 -30 -77 -56 -101 -94 -33 -51 -97 -115 -115 -115 -19 0
-79 -61 -114 -118 -26 -41 -56 -70 -104 -102 -49 -33 -79 -63 -111 -111 -25
-36 -61 -76 -80 -89 -20 -13 -53 -34 -74 -48 -20 -14 -47 -41 -59 -60 -36 -58
-79 -102 -120 -123 -43 -22 -118 -94 -118 -114 0 -27 -72 -155 -101 -179 l-30
-26 113 -56 c62 -30 136 -60 163 -65 28 -6 78 -19 112 -30 35 -11 112 -30 172
-43 l110 -22 43 23 c82 43 152 64 274 83 146 22 182 37 251 107 65 64 83 74
212 112 114 34 144 52 197 117 50 61 100 87 223 119 131 33 148 42 201 105 58
69 96 86 257 114 168 30 209 44 293 101 69 48 161 85 208 85 33 0 71 -26 102
-70 l21 -29 -20 -40 c-11 -21 -45 -60 -76 -87 -35 -30 -66 -67 -82 -101 -28
-57 -83 -112 -152 -153 -24 -14 -58 -46 -77 -72 -39 -55 -87 -88 -164 -113
-79 -26 -127 -51 -192 -101 -77 -60 -137 -88 -243 -113 -151 -36 -184 -50
-241 -102 -64 -58 -87 -70 -184 -99 -104 -32 -176 -70 -236 -127 -28 -27 -82
-65 -120 -85 -76 -40 -114 -73 -149 -129 -24 -37 -67 -76 -125 -112 -19 -12
-49 -42 -67 -67 -65 -90 -76 -102 -131 -138 -31 -20 -71 -57 -89 -82 -66 -91
-79 -104 -138 -142 -57 -36 -75 -56 -128 -137 -12 -19 -48 -50 -79 -68 -31
-18 -74 -54 -95 -80 -70 -85 -119 -132 -143 -136 -107 -21 -147 -34 -181 -59
l-39 -28 -14 28 c-8 15 -24 56 -35 90 -21 61 -21 71 -21 1381 l0 1320 45 53
c25 29 69 87 99 128 30 41 73 87 95 101 22 14 93 41 158 60 98 29 122 39 148
68 77 85 107 110 152 126 109 40 171 73 197 108 31 40 105 78 208 107 38 11
78 25 87 32 37 28 81 73 81 83 0 27 60 66 147 94 130 43 170 65 233 131 39 40
70 63 105 75 106 37 155 65 213 119 66 59 147 105 227 126 85 23 152 57 202
103 81 75 135 96 337 133 182 32 224 45 297 90 62 38 92 45 249 52 52 3 57 1
90 -33z m15405 -186 c57 -50 61 -65 31 -107 -14 -20 -46 -50 -71 -67 -36 -24
-49 -41 -66 -86 -27 -73 -69 -124 -128 -154 -49 -24 -94 -69 -123 -123 -18
-33 -66 -71 -147 -114 -32 -18 -65 -47 -90 -82 -35 -47 -54 -61 -133 -99 -55
-27 -119 -67 -156 -100 -55 -48 -208 -136 -237 -137 -15 -1 -67 -49 -108 -102
-28 -34 -58 -57 -119 -87 -59 -29 -104 -61 -155 -110 -70 -69 -147 -113 -243
-142 -31 -10 -58 -31 -106 -85 -76 -85 -114 -105 -240 -128 -124 -22 -134 -21
-178 16 -74 61 -76 69 -76 454 0 284 3 349 16 395 32 107 73 167 146 212 46
29 189 64 288 72 114 8 188 31 272 85 83 54 194 86 360 105 185 20 252 44 370
130 73 54 180 90 298 99 94 8 242 37 306 59 23 9 64 32 92 51 41 30 81 49 159
75 1 1 18 -13 38 -30z m-11877 -2135 c35 -15 77 -48 127 -99 77 -78 105 -121
124 -191 13 -47 55 -105 92 -128 31 -19 78 -72 123 -141 18 -27 58 -71 90 -96
35 -29 82 -83 121 -140 35 -52 90 -122 122 -157 61 -65 69 -78 127 -203 26
-56 48 -86 86 -118 28 -23 59 -60 70 -81 26 -50 50 -232 50 -374 l0 -109 -36
-34 c-45 -42 -79 -60 -140 -73 -149 -32 -191 -51 -252 -110 -73 -72 -100 -86
-234 -121 -127 -33 -160 -49 -190 -90 -34 -46 -116 -96 -189 -114 -150 -38
-188 -55 -242 -110 -67 -67 -115 -91 -230 -115 -78 -16 -195 -52 -201 -62 -28
-46 -46 -63 -97 -88 -36 -19 -68 -29 -79 -25 -20 6 -70 60 -70 75 0 22 70 78
107 84 63 12 81 30 89 87 8 61 34 95 113 148 32 22 67 57 81 81 39 65 78 108
134 145 29 19 62 52 76 76 25 43 80 101 164 172 25 21 59 63 75 92 22 38 48
66 90 94 66 45 92 77 111 136 17 56 57 123 100 171 41 44 90 173 90 234 0 33
-24 174 -36 213 -3 9 -17 23 -32 31 -50 25 -206 55 -320 60 -102 5 -120 3
-194 -20 -83 -26 -142 -57 -168 -88 -24 -30 -127 -75 -217 -96 -153 -35 -184
-49 -243 -105 -74 -70 -114 -89 -256 -120 -133 -30 -144 -35 -206 -101 -47
-50 -104 -84 -141 -84 -44 0 -128 31 -159 59 l-32 28 85 84 c46 46 111 114
144 150 33 36 94 90 135 121 42 31 96 81 120 111 25 30 73 74 108 97 34 23 75
58 90 78 44 59 114 125 167 157 27 17 59 46 72 65 42 67 67 93 122 128 61 38
82 59 110 112 25 46 73 94 114 113 40 19 76 58 111 120 17 30 45 60 73 78 51
32 63 31 151 -7z m11441 -20 c17 -14 39 -38 50 -53 19 -26 19 -28 1 -118 -26
-126 -40 -155 -93 -192 -50 -34 -147 -138 -147 -157 0 -27 -65 -65 -163 -95
-152 -46 -152 -46 -218 -114 -73 -75 -101 -88 -243 -114 -118 -22 -160 -42
-246 -115 -60 -51 -129 -87 -215 -111 -92 -26 -124 -45 -174 -103 -78 -91
-128 -108 -226 -78 -55 16 -65 52 -37 137 12 35 24 87 28 114 11 81 35 115
120 170 28 18 66 52 85 76 65 83 117 128 161 140 57 15 169 72 192 98 34 38
112 81 198 110 107 36 141 54 192 101 59 54 129 86 274 125 161 43 197 58 250
107 36 33 151 98 174 98 3 0 20 -12 37 -26z m-16831 -38 c13 -4 22 -16 22 -27
0 -10 -1 -19 -2 -19 -2 0 -37 -14 -78 -31 l-75 -30 -22 26 c-29 33 -29 49 1
73 25 19 104 23 154 8z m2205 -1250 c23 -16 47 -61 47 -90 0 -11 -73 -98 -164
-196 -58 -62 -147 -138 -221 -190 -27 -19 -77 -62 -110 -95 -37 -37 -87 -73
-129 -94 -52 -26 -77 -47 -107 -87 -42 -57 -69 -78 -143 -115 -30 -15 -73 -51
-111 -94 -46 -51 -82 -80 -131 -105 -41 -22 -104 -69 -162 -123 -65 -60 -118
-99 -169 -124 -42 -21 -86 -51 -101 -70 -78 -97 -100 -118 -150 -140 -69 -30
-109 -60 -133 -99 -30 -50 -66 -80 -127 -109 -75 -35 -118 -68 -147 -115 -16
-25 -47 -51 -97 -78 -113 -64 -158 -102 -182 -158 -34 -78 -67 -121 -118 -151
-26 -15 -48 -30 -48 -33 0 -4 54 -21 152 -46 22 -6 55 30 62 71 11 58 32 73
129 89 116 20 182 51 260 124 72 67 120 95 193 113 76 19 136 53 173 99 41 51
117 88 251 124 93 24 95 25 152 89 31 35 70 69 85 75 15 6 73 19 128 28 177
29 170 26 190 79 17 43 47 77 97 108 25 15 28 15 59 -6 18 -12 41 -34 52 -48
17 -24 18 -29 4 -55 -22 -43 -56 -70 -112 -91 -47 -18 -51 -21 -62 -67 -12
-48 -55 -105 -97 -128 -11 -6 -46 -17 -79 -25 -77 -17 -155 -60 -172 -93 -34
-64 -97 -107 -227 -154 -34 -13 -62 -34 -104 -83 -65 -73 -91 -87 -237 -128
-97 -28 -108 -34 -176 -109 -44 -48 -89 -70 -186 -90 -140 -29 -169 -42 -219
-100 -65 -77 -102 -91 -291 -112 -74 -8 -132 -34 -193 -88 -26 -23 -58 -49
-72 -57 -38 -24 -141 -55 -285 -85 -71 -15 -140 -29 -152 -31 -12 -3 -31 -15
-43 -28 -21 -23 -21 -24 -5 -47 10 -13 35 -35 57 -50 35 -26 54 -49 111 -137
12 -19 34 -43 49 -54 26 -19 26 -19 88 1 34 12 86 38 116 57 68 46 145 80 236
105 85 24 110 38 147 91 50 69 74 82 134 74 64 -8 147 -33 165 -50 11 -10 4
-19 -37 -48 -53 -39 -90 -88 -110 -148 -13 -40 -38 -71 -79 -96 -98 -60 -175
-116 -230 -168 -43 -40 -95 -75 -155 -105 -78 -39 -98 -53 -136 -104 -56 -74
-76 -86 -213 -125 -142 -41 -147 -43 -216 -111 -32 -31 -72 -62 -89 -69 -29
-12 -36 -11 -65 6 -18 10 -43 34 -55 51 -46 70 -48 110 -48 1177 0 550 3 1012
8 1027 9 35 61 94 97 113 16 8 79 19 140 25 126 12 153 24 191 88 48 81 79
102 192 133 80 23 130 47 172 84 67 60 126 83 310 126 98 22 102 25 166 85 84
79 102 88 260 128 l130 33 72 71 c80 77 109 90 262 113 99 15 142 36 211 103
58 58 89 70 251 100 97 18 149 42 218 101 68 58 115 80 245 115 125 34 213 75
268 124 38 34 79 58 141 82 49 19 189 12 224 -10z m12860 -99 c-9 -15 -21 4
-15 25 5 21 6 21 12 2 4 -10 5 -22 3 -27z m3520 -268 c34 -22 54 -46 74 -87
l28 -57 0 -275 c0 -252 -4 -398 -21 -705 -8 -153 -32 -223 -104 -296 -30 -31
-71 -83 -90 -114 -19 -32 -69 -93 -110 -135 -80 -83 -148 -124 -255 -155 -76
-22 -121 -45 -175 -90 -92 -77 -163 -100 -370 -120 -160 -16 -245 -39 -327
-91 -102 -65 -181 -90 -318 -99 -182 -13 -311 -49 -382 -108 -82 -67 -134 -87
-282 -109 -150 -21 -220 -47 -281 -102 -25 -22 -53 -36 -81 -41 -24 -4 -51 -9
-59 -10 -9 -2 -40 -6 -70 -10 -52 -6 -56 -5 -84 24 l-30 31 25 26 c13 14 41
35 62 45 43 22 72 64 82 118 10 53 47 96 124 141 48 28 84 59 118 102 41 52
64 70 134 106 48 24 118 72 164 112 47 42 113 86 160 110 89 44 115 64 168
132 28 35 58 56 123 89 54 26 109 63 148 99 60 57 125 95 239 140 49 19 68 34
112 90 44 55 67 74 131 106 57 29 90 55 132 102 36 41 84 80 140 114 48 29
126 90 176 138 50 47 121 107 158 133 41 30 79 67 100 100 18 28 72 93 120
144 64 68 96 113 122 168 20 41 36 79 36 84 0 36 87 181 109 181 4 0 28 -14
54 -31z m-14082 -254 c22 -14 53 -46 68 -71 24 -36 27 -50 21 -77 -4 -17 -17
-71 -29 -120 -25 -103 -55 -156 -108 -187 -54 -33 -102 -79 -123 -121 -21 -41
-77 -92 -143 -130 -27 -17 -58 -48 -82 -83 -29 -44 -53 -65 -118 -103 -58 -35
-93 -64 -125 -106 -50 -63 -89 -85 -231 -132 -72 -24 -94 -37 -148 -87 -67
-62 -121 -92 -163 -90 -14 1 -63 7 -108 13 -122 17 -156 50 -209 203 -19 57
-53 254 -53 313 0 32 69 88 160 130 72 33 110 59 155 103 61 61 112 88 237
129 60 20 75 30 125 88 57 65 95 90 168 112 123 38 192 72 228 116 50 60 123
93 243 111 55 8 104 16 109 19 23 10 89 -5 126 -30z m12802 -22 c60 -16 127
-66 127 -94 0 -25 -71 -103 -275 -307 -148 -147 -225 -214 -295 -261 -53 -35
-110 -82 -128 -106 -30 -39 -58 -61 -172 -134 -19 -13 -54 -50 -77 -82 -30
-42 -58 -67 -95 -86 -54 -28 -122 -90 -169 -154 -16 -21 -59 -52 -108 -79 -58
-31 -97 -60 -131 -99 -47 -55 -111 -94 -241 -150 -35 -15 -56 -34 -90 -81 -45
-64 -65 -78 -198 -139 -29 -14 -82 -51 -117 -83 -35 -31 -76 -64 -91 -72 -62
-32 -171 -55 -285 -60 -133 -6 -126 -10 -154 82 -19 65 -18 78 16 178 46 135
68 306 94 729 8 120 74 243 165 306 64 44 118 61 273 88 143 26 155 30 220 82
77 61 120 77 260 93 69 8 165 24 215 36 76 18 97 27 144 66 86 72 134 92 261
109 265 36 324 53 403 115 85 67 117 81 230 101 128 22 146 22 218 2z m-17762
-74 l22 -22 -34 -18 c-69 -37 -98 -43 -120 -23 -10 9 -19 25 -19 35 0 48 111
68 151 28z m7738 -652 c21 -23 111 -211 111 -233 0 -11 29 -38 116 -109 24
-19 50 -58 77 -114 30 -63 57 -101 107 -151 61 -60 67 -71 83 -137 29 -121 31
-154 8 -189 -25 -41 -74 -76 -136 -99 -85 -31 -142 -63 -197 -111 -69 -62
-114 -80 -281 -115 -80 -16 -149 -36 -161 -46 -12 -10 -37 -32 -56 -50 -57
-52 -132 -80 -250 -93 -58 -7 -132 -18 -165 -27 -69 -17 -175 -62 -175 -74 0
-13 -90 -71 -142 -91 -26 -10 -101 -26 -166 -37 -131 -21 -206 -50 -271 -105
-80 -67 -160 -98 -309 -121 -53 -8 -113 -19 -132 -25 -19 -5 -40 -10 -46 -10
-38 0 -121 140 -110 185 10 39 51 79 111 110 37 18 76 50 113 93 31 35 83 82
115 104 32 22 91 72 131 111 40 40 138 130 217 202 125 112 369 348 643 621
45 44 133 119 196 167 63 47 135 107 160 132 33 35 75 62 155 101 60 29 130
71 155 93 52 47 68 50 99 18z m-1465 -156 c94 -46 109 -68 135 -195 20 -104
20 -110 3 -129 -27 -31 -96 -75 -181 -117 -74 -37 -94 -54 -150 -132 -24 -33
-38 -45 -128 -108 -33 -23 -52 -50 -89 -123 -28 -56 -71 -121 -107 -163 -34
-38 -73 -98 -89 -134 -50 -110 -58 -123 -132 -195 -59 -58 -75 -82 -95 -137
-14 -37 -41 -91 -61 -120 -38 -55 -157 -164 -235 -216 l-45 -30 -67 33 c-38
18 -86 38 -108 45 -60 19 -102 55 -150 129 -29 46 -62 82 -104 112 -54 39 -66
55 -108 139 -27 52 -72 124 -101 160 -59 73 -100 150 -108 202 -9 50 38 100
133 144 46 21 95 53 131 87 62 59 102 82 201 116 94 32 115 46 163 101 56 65
98 92 178 114 166 45 166 44 227 107 74 78 112 96 250 125 130 27 144 33 236
107 66 52 110 72 222 96 74 16 115 12 179 -18z m-3714 -863 c51 -42 63 -77 89
-258 6 -41 17 -120 25 -175 18 -117 42 -327 51 -437 6 -74 -1 -143 -40 -358
-21 -116 -43 -303 -65 -555 -11 -126 -25 -250 -31 -275 -13 -55 -51 -133 -85
-173 -32 -38 -69 -121 -90 -200 -27 -103 -59 -139 -177 -196 -57 -27 -118 -61
-136 -77 -32 -27 -35 -28 -145 -25 -104 2 -116 0 -165 -24 -29 -15 -130 -46
-224 -70 l-170 -42 -57 -60 c-71 -76 -107 -94 -245 -123 -129 -26 -152 -37
-219 -100 -66 -61 -93 -75 -196 -94 -147 -28 -159 -33 -235 -106 -38 -37 -79
-72 -90 -77 -11 -6 -73 -23 -138 -38 l-119 -28 -71 -72 c-85 -85 -99 -93 -240
-135 -82 -24 -117 -30 -148 -25 -56 10 -103 54 -119 111 -13 45 -12 49 22 118
59 119 148 204 293 281 39 20 100 65 136 100 48 46 88 74 145 100 57 26 97 53
144 99 57 56 77 68 163 100 53 20 103 36 110 36 14 0 69 55 109 110 16 23 55
51 109 79 92 48 174 104 182 125 9 22 108 81 196 117 81 33 99 46 179 133 18
20 64 52 101 71 50 24 85 52 123 95 34 40 83 79 138 113 48 28 127 90 181 141
52 50 129 123 170 161 66 61 83 85 133 185 41 80 74 132 112 170 69 72 82 106
90 237 5 98 3 116 -21 198 -14 50 -34 98 -43 107 -16 16 -20 16 -67 -2 -114
-42 -140 -52 -203 -81 -36 -17 -118 -42 -181 -55 -202 -43 -212 -48 -270 -114
-44 -50 -63 -63 -134 -92 -68 -27 -93 -44 -147 -98 -36 -36 -88 -83 -117 -104
-29 -20 -82 -71 -119 -112 -36 -41 -72 -74 -79 -74 -7 0 -57 29 -111 65 -72
48 -103 64 -118 59 -35 -11 -99 -42 -131 -64 -41 -27 -170 -77 -252 -96 -86
-20 -149 -53 -198 -104 -59 -62 -133 -95 -310 -142 -44 -12 -53 -18 -70 -55
-24 -50 -51 -80 -87 -99 -25 -13 -33 -12 -77 7 -27 11 -59 31 -72 45 l-22 24
72 69 c39 38 80 72 90 76 11 3 26 23 35 45 23 59 81 116 150 150 75 37 84 44
118 97 34 52 76 83 153 113 71 28 115 55 170 104 22 20 64 48 93 62 52 24 94
36 302 84 156 36 243 74 313 137 34 31 88 75 119 97 31 23 77 69 102 103 25
33 79 86 120 117 42 31 80 64 85 75 15 27 96 75 171 102 77 27 130 58 187 110
50 46 86 62 220 100 132 37 196 67 258 119 55 46 110 77 170 95 41 13 64 7
105 -27z m16471 -409 c16 -11 40 -40 54 -64 24 -40 26 -56 36 -241 5 -110 12
-207 15 -216 3 -9 -9 -70 -27 -135 l-32 -118 -88 -85 c-48 -47 -97 -103 -108
-126 -19 -38 -48 -68 -138 -140 -21 -18 -53 -58 -71 -91 -34 -65 -50 -81 -119
-127 -33 -22 -56 -49 -81 -94 -36 -66 -58 -91 -131 -144 -26 -19 -60 -60 -83
-98 -43 -72 -82 -112 -182 -184 -93 -66 -143 -84 -267 -91 -57 -3 -158 -11
-224 -17 -138 -12 -172 -28 -230 -109 -19 -26 -59 -64 -89 -83 -31 -20 -68
-53 -84 -75 -27 -36 -29 -49 -35 -153 l-7 -113 35 -32 c47 -44 76 -49 159 -28
105 27 129 39 184 93 44 43 64 54 154 82 148 48 217 82 263 130 54 57 95 76
237 111 151 37 177 48 231 98 67 62 124 83 252 92 126 8 153 0 211 -59 38 -39
40 -51 20 -91 -15 -28 -80 -91 -95 -91 -16 0 -79 -69 -100 -111 -29 -56 -66
-96 -112 -119 -39 -20 -72 -57 -122 -135 -22 -34 -51 -61 -92 -86 -42 -25 -71
-52 -97 -91 -39 -58 -87 -104 -156 -150 -23 -15 -56 -51 -75 -80 -31 -49 -71
-89 -146 -146 -17 -13 -47 -48 -67 -77 -19 -30 -62 -79 -94 -109 -33 -30 -80
-80 -106 -113 -64 -80 -478 -490 -545 -540 -30 -23 -79 -67 -109 -98 -30 -31
-85 -74 -123 -96 -42 -25 -83 -60 -108 -92 -48 -60 -89 -92 -138 -108 -69 -22
-155 -70 -199 -110 -49 -46 -141 -91 -218 -107 -28 -6 -141 -17 -252 -23
l-200 -12 -57 27 c-36 18 -67 43 -87 70 -33 46 -33 34 -2 348 19 191 43 248
127 309 21 16 61 62 88 103 56 85 197 222 310 302 43 30 96 76 119 104 23 27
72 69 109 94 36 25 74 53 83 63 8 10 43 72 76 138 34 66 80 143 103 170 74 88
87 129 94 300 3 83 8 180 11 217 4 57 2 73 -20 115 -13 26 -39 63 -58 82 l-33
34 -270 -6 c-148 -3 -281 -9 -295 -12 -14 -3 -137 -9 -273 -12 l-248 -6 -40
38 c-21 22 -39 43 -39 49 0 18 44 74 70 89 18 11 50 13 123 11 155 -5 315 39
343 94 38 76 133 124 294 147 63 9 126 23 140 30 14 7 48 37 75 65 64 66 105
87 234 118 114 27 148 46 196 110 41 54 77 77 176 111 142 48 182 68 209 108
35 51 90 88 168 114 99 32 161 66 219 119 53 49 115 83 194 106 58 18 120 62
148 108 26 42 59 63 166 107 116 48 145 65 196 123 33 36 71 64 130 94 70 35
90 50 119 94 44 65 71 90 128 120 45 22 63 44 122 141 28 45 80 87 108 87 8 0
27 -9 43 -21z m-10277 -314 c82 -83 139 -180 139 -235 0 -75 -149 -280 -266
-367 -34 -24 -83 -68 -108 -97 -31 -34 -75 -67 -129 -96 -51 -28 -92 -58 -108
-80 -52 -71 -79 -93 -165 -136 -58 -29 -105 -62 -135 -94 -48 -50 -137 -100
-241 -136 -43 -15 -66 -32 -113 -86 -63 -70 -107 -98 -155 -98 -35 0 -142 51
-168 80 -17 19 -17 22 -1 57 9 21 25 80 36 131 12 52 30 112 41 135 27 52 220
246 280 281 26 14 73 57 106 94 42 46 82 79 132 107 58 31 81 51 114 100 31
43 58 68 97 90 50 28 94 67 180 162 19 21 57 54 85 73 39 28 57 51 91 119 23
46 57 98 74 116 l32 33 52 -36 c28 -21 86 -73 130 -117z m8735 -9 c10 -11 9
-21 -4 -46 -9 -17 -22 -33 -30 -36 -18 -7 -35 -57 -35 -103 0 -82 -70 -138
-224 -178 -118 -32 -165 -53 -213 -97 -64 -57 -133 -83 -269 -101 -195 -25
-294 -57 -362 -116 -71 -62 -141 -86 -342 -114 -263 -37 -311 -50 -383 -99
-107 -71 -107 -71 -163 -43 -78 39 -87 55 -92 152 -2 47 -1 100 2 118 9 48 65
102 149 142 50 23 90 53 131 94 68 71 111 88 305 121 141 25 203 44 256 80
111 76 198 96 490 115 84 5 209 19 280 31 17 3 102 16 190 29 88 13 185 33
215 44 67 24 84 25 99 7z m-10137 -135 c19 -13 45 -39 57 -57 l23 -33 -24 -47
c-12 -26 -51 -77 -86 -113 -82 -85 -91 -99 -147 -210 -36 -72 -63 -109 -119
-164 -49 -50 -76 -85 -85 -114 -20 -62 -59 -115 -119 -162 -29 -23 -58 -54
-64 -69 -63 -152 -97 -210 -165 -277 -38 -39 -88 -103 -112 -142 -29 -52 -55
-82 -89 -104 -66 -44 -108 -86 -143 -141 -17 -26 -45 -56 -63 -67 -34 -22 -58
-20 -203 9 -59 13 -96 48 -151 146 -18 33 -64 95 -103 139 -63 71 -149 217
-149 252 0 6 -34 48 -75 93 -41 45 -77 91 -80 103 -8 41 -24 132 -30 178 -8
66 44 168 122 235 105 90 147 107 318 129 143 18 223 43 290 90 102 71 125 85
182 104 32 10 114 26 182 35 136 17 185 35 299 109 119 78 233 107 413 104 72
-2 91 -6 121 -26z m1257 -1061 c44 -22 88 -70 97 -105 12 -48 -40 -110 -134
-160 -40 -21 -63 -42 -79 -70 -32 -57 -76 -101 -131 -129 -50 -26 -82 -56
-126 -123 -16 -25 -54 -58 -91 -81 -44 -28 -75 -58 -103 -98 -45 -66 -79 -100
-134 -133 -21 -13 -56 -50 -82 -90 -24 -38 -59 -79 -76 -92 -79 -61 -110 -93
-133 -142 -23 -50 -58 -87 -140 -150 -25 -19 -50 -55 -77 -110 -21 -45 -59
-104 -83 -132 l-44 -49 -59 17 c-32 9 -81 22 -109 28 -51 10 -140 63 -246 146
-95 74 -151 202 -170 385 l-11 109 37 44 c47 59 108 99 170 114 82 20 156 50
188 77 42 36 109 67 208 98 86 27 121 47 238 138 47 36 87 55 171 82 118 38
136 48 218 113 67 54 131 87 210 107 93 25 141 49 207 103 69 57 107 79 185
104 30 10 56 18 58 18 1 1 20 -8 41 -19z m1096 -24 c55 -32 91 -88 99 -152 3
-28 13 -75 20 -105 14 -52 14 -55 -9 -85 -13 -17 -49 -53 -80 -80 -31 -27 -85
-75 -120 -106 -74 -67 -118 -91 -206 -113 -153 -39 -182 -52 -241 -114 -65
-69 -106 -92 -208 -116 -159 -37 -179 -45 -228 -103 -47 -55 -123 -102 -165
-102 -59 0 -130 50 -142 100 -8 36 54 103 134 143 57 28 68 39 95 91 32 62 59
87 146 133 36 20 70 50 101 89 25 32 60 68 77 79 17 11 52 33 76 48 25 16 63
50 83 77 21 27 54 58 73 70 19 12 58 36 87 53 28 18 71 50 95 72 68 64 108 90
178 118 80 33 84 33 135 3z m-9642 -222 c48 -6 97 -37 117 -74 13 -24 -18 -63
-87 -107 -34 -21 -65 -52 -83 -81 -44 -72 -69 -101 -122 -140 -27 -21 -70 -67
-94 -104 -25 -36 -60 -79 -79 -95 -19 -15 -51 -41 -71 -57 -20 -17 -52 -54
-72 -85 -21 -30 -53 -67 -73 -83 l-37 -30 -40 21 c-23 11 -53 37 -68 56 -26
35 -27 40 -28 178 -1 121 2 154 22 223 32 110 61 138 219 214 69 33 141 74
161 91 19 17 63 45 96 61 64 30 75 31 239 12z m9854 -631 c41 -26 83 -86 83
-117 0 -34 -58 -143 -98 -181 -40 -40 -98 -143 -122 -220 -14 -43 -66 -125
-79 -125 -24 0 -109 -93 -126 -137 -26 -68 -70 -129 -116 -160 -31 -21 -53
-52 -106 -150 -56 -103 -78 -134 -128 -179 -45 -39 -74 -76 -106 -135 -34 -64
-55 -90 -97 -121 -49 -37 -112 -117 -112 -143 0 -18 -67 -92 -106 -116 -21
-13 -57 -54 -89 -104 -37 -58 -68 -93 -102 -115 -26 -18 -70 -55 -96 -82 -26
-27 -73 -61 -104 -75 -50 -23 -59 -24 -97 -13 -132 40 -207 106 -296 264 -41
73 -67 106 -102 132 -43 32 -107 114 -108 138 -1 6 -7 59 -14 118 -11 95 -10
115 5 180 29 121 49 156 134 232 42 38 93 93 112 122 36 54 59 72 173 140 79
46 112 70 170 125 25 23 74 55 110 71 118 54 132 63 159 96 66 85 90 100 201
137 112 36 147 55 195 105 58 60 87 75 240 125 122 39 143 50 187 91 67 63
142 95 257 109 135 18 133 18 178 -12z m6300 -213 c31 -18 73 -84 73 -113 0
-21 -73 -93 -118 -116 -43 -22 -80 -56 -135 -124 -52 -64 -64 -71 -201 -112
-113 -35 -189 -72 -199 -99 -8 -19 -98 -76 -120 -76 -11 0 -39 19 -62 43 -39
41 -42 50 -59 146 -14 80 -17 126 -11 209 8 126 27 177 80 218 46 35 95 40
470 42 232 2 252 1 282 -18z m-5428 -266 c43 -38 51 -57 77 -184 20 -100 43
-149 96 -210 22 -25 46 -57 54 -72 18 -34 44 -169 44 -225 0 -56 -36 -96 -130
-148 -39 -22 -99 -66 -134 -100 -64 -63 -91 -75 -291 -130 -73 -21 -124 -46
-190 -96 -78 -59 -148 -86 -297 -113 -148 -27 -183 -41 -239 -91 -71 -64 -116
-82 -230 -95 -124 -14 -151 -6 -193 57 l-25 37 20 36 c11 19 45 53 75 75 62
45 76 63 103 136 27 70 65 122 111 153 32 21 49 46 95 143 50 105 65 126 134
193 44 42 90 98 104 125 28 56 71 99 135 139 23 14 55 45 71 69 61 88 76 101
156 137 47 23 105 60 140 92 60 53 79 61 215 97 54 14 57 13 99 -25z m-8486
-403 c16 -10 39 -34 52 -53 29 -43 42 -165 50 -475 5 -169 3 -205 -11 -247
-23 -67 -115 -155 -262 -251 -45 -29 -49 -30 -171 -30 -109 0 -140 -4 -231
-30 -103 -29 -106 -31 -170 -95 -78 -79 -94 -90 -185 -120 -110 -36 -150 -57
-207 -106 -63 -54 -99 -73 -193 -104 -95 -31 -142 -55 -195 -102 -56 -50 -113
-79 -221 -113 -96 -31 -173 -72 -209 -110 -37 -40 -129 -83 -237 -111 -114
-29 -125 -35 -184 -89 -25 -24 -61 -51 -79 -60 -49 -25 -140 -55 -168 -55 -33
0 -86 41 -102 79 -11 28 -10 34 15 67 15 19 48 45 73 56 88 39 97 46 132 108
24 41 50 70 80 90 91 59 111 76 152 129 23 29 73 74 110 98 38 25 92 72 121
105 28 33 75 75 102 94 28 18 98 77 156 131 58 54 137 120 176 147 40 27 93
76 121 110 33 41 71 74 117 101 51 29 76 52 101 90 39 62 88 107 154 140 36
18 60 41 89 84 44 64 68 84 147 124 32 16 74 52 112 95 50 56 73 74 129 97
122 51 177 83 227 131 81 76 130 94 266 94 95 0 120 -3 143 -19z m-1665 -263
c17 -18 32 -40 32 -49 0 -21 -71 -85 -115 -104 -19 -8 -51 -22 -71 -30 -20 -9
-42 -29 -52 -47 -35 -65 -74 -98 -167 -143 -74 -35 -113 -63 -183 -128 -49
-46 -111 -94 -138 -106 -62 -29 -79 -44 -120 -108 -36 -56 -101 -110 -143
-119 -86 -18 -129 -38 -173 -82 l-48 -46 -23 22 c-20 19 -26 39 -35 117 -17
131 -17 129 35 187 25 29 63 89 84 133 42 91 78 129 166 175 36 19 78 51 98
76 52 63 86 79 239 108 148 29 179 41 240 92 48 42 81 57 186 87 78 23 88 24
120 10 19 -7 50 -28 68 -45z m18429 -168 c25 -11 51 -33 63 -52 21 -33 21 -39
15 -423 -6 -434 -20 -793 -35 -903 -11 -84 -48 -163 -97 -209 -19 -19 -61 -87
-100 -163 -72 -145 -78 -150 -215 -224 -47 -26 -114 -71 -147 -101 -78 -69
-113 -87 -237 -120 -131 -35 -176 -56 -235 -109 -61 -55 -117 -76 -279 -107
l-125 -24 -57 -57 c-66 -66 -126 -103 -183 -113 -22 -4 -74 -18 -117 -31 -62
-20 -86 -34 -129 -75 -74 -71 -117 -90 -239 -105 -58 -7 -114 -13 -126 -14
-32 0 -109 56 -130 95 -18 34 -18 36 1 71 19 35 118 134 135 134 4 0 28 31 53
68 25 37 75 101 111 140 37 40 101 125 143 188 42 64 87 123 100 131 30 20
103 114 131 169 11 22 54 70 95 107 51 46 82 83 99 119 28 58 61 95 124 139
29 19 52 50 79 101 25 46 62 96 105 138 36 36 84 94 105 130 55 93 80 126 156
205 36 39 80 95 98 126 18 32 62 83 104 121 39 36 81 83 92 104 33 65 58 94
105 123 50 31 87 71 131 144 18 29 47 58 76 76 75 46 102 70 122 110 20 37 71
90 106 109 22 12 38 9 102 -18z m-8054 -505 c35 -24 37 -29 38 -78 0 -29 2
-77 5 -108 5 -53 3 -59 -26 -93 -17 -19 -53 -52 -80 -71 -28 -20 -66 -63 -88
-98 -22 -35 -57 -76 -77 -93 -67 -53 -130 -119 -157 -166 -17 -30 -46 -59 -85
-85 -36 -24 -70 -57 -90 -88 -54 -83 -73 -104 -131 -143 -54 -35 -67 -50 -121
-140 -13 -22 -42 -50 -64 -63 -57 -33 -107 -86 -142 -149 -23 -42 -46 -65 -98
-100 -57 -38 -74 -56 -103 -109 -43 -83 -72 -112 -164 -168 -171 -106 -192
-111 -238 -59 -32 36 -50 85 -78 206 -17 72 -20 78 -90 145 -52 51 -82 90
-109 145 -27 54 -55 92 -103 137 l-66 63 22 42 c33 66 97 169 125 203 35 43
99 72 208 95 138 30 150 35 219 100 76 72 118 92 240 115 124 23 162 40 239
109 73 66 77 68 231 107 122 32 157 49 232 115 59 53 115 79 243 111 111 27
142 43 200 102 21 23 46 41 55 41 8 0 32 -11 53 -25z m1024 -150 c32 -8 79
-51 117 -108 19 -29 57 -69 85 -90 82 -63 106 -97 127 -178 32 -128 22 -340
-19 -401 -37 -54 -77 -73 -204 -98 -131 -25 -198 -54 -259 -110 -22 -20 -67
-47 -99 -59 -58 -22 -99 -31 -295 -66 -97 -18 -123 -30 -193 -93 -21 -18 -59
-42 -83 -53 -41 -17 -193 -47 -334 -65 -30 -3 -74 -12 -98 -19 l-43 -13 -29
40 c-16 22 -37 60 -46 84 -15 39 -15 48 -3 71 7 14 26 35 42 47 72 54 118 102
146 150 16 29 45 66 65 82 95 77 114 97 140 148 16 31 46 70 68 88 81 67 134
125 160 175 18 34 46 65 82 92 29 22 74 66 98 98 26 34 71 77 111 103 37 25
87 69 112 97 25 28 67 62 93 75 45 23 54 24 143 16 52 -4 104 -10 116 -13z
m5477 -43 c29 -40 30 -47 31 -156 1 -139 -26 -319 -52 -348 -25 -29 -83 -64
-185 -115 -71 -35 -95 -54 -133 -100 -26 -32 -79 -79 -118 -105 -53 -35 -82
-63 -113 -111 -23 -35 -58 -77 -78 -93 -20 -16 -52 -42 -71 -57 -19 -16 -49
-54 -66 -85 -18 -31 -62 -86 -99 -122 -36 -36 -97 -112 -134 -170 -38 -58 -91
-128 -117 -157 -31 -32 -66 -87 -94 -147 -37 -77 -57 -105 -100 -142 -29 -26
-64 -67 -77 -93 -43 -85 -77 -128 -127 -161 -28 -17 -60 -48 -72 -68 -37 -61
-81 -102 -152 -139 -38 -20 -76 -47 -85 -60 -50 -73 -79 -96 -178 -143 -73
-35 -110 -60 -129 -85 -36 -47 -73 -68 -191 -110 -93 -34 -103 -40 -169 -108
-60 -62 -82 -78 -150 -106 -121 -49 -159 -71 -217 -124 -65 -59 -98 -77 -209
-111 -95 -28 -165 -73 -175 -110 -13 -54 -80 -90 -195 -104 -68 -9 -157 -42
-201 -76 -10 -7 -18 -29 -19 -54 -3 -39 -10 -48 -41 -43 -4 0 -26 -8 -50 -19
-24 -10 -81 -24 -127 -30 -116 -16 -201 -52 -273 -116 -35 -31 -82 -62 -114
-73 -59 -23 -267 -63 -326 -63 -80 -1 -118 33 -133 118 -12 78 29 144 145 233
17 13 41 44 53 69 12 26 43 67 68 92 26 25 85 82 131 127 57 56 101 90 139
107 40 17 71 42 109 86 61 70 77 80 202 121 99 32 146 56 193 100 58 53 130
80 269 101 143 22 178 36 263 110 59 51 82 60 208 87 123 27 166 48 230 114
28 29 88 74 134 102 124 72 185 138 255 273 32 63 78 136 102 163 67 75 74 96
95 278 34 291 46 330 129 411 21 20 58 78 84 128 41 78 60 102 132 167 91 80
130 104 210 128 77 23 113 44 174 102 50 47 67 56 175 91 116 38 122 41 185
105 86 87 100 94 237 129 l117 30 71 74 c57 58 84 78 131 95 77 29 118 55 179
112 45 43 60 50 150 72 55 14 109 24 120 24 10 -1 33 -21 49 -45z m-15195
-714 c13 -16 36 -58 50 -91 26 -61 26 -65 26 -312 0 -248 0 -250 -26 -305 -14
-30 -39 -69 -55 -86 l-29 -31 -114 16 -114 15 -105 -27 c-79 -21 -114 -35
-141 -59 -53 -47 -123 -73 -272 -102 -159 -32 -191 -44 -221 -90 -35 -54 -102
-92 -188 -106 -41 -7 -98 -21 -125 -31 -43 -16 -54 -26 -73 -64 -16 -34 -38
-56 -84 -85 -33 -22 -66 -40 -72 -40 -32 0 -124 -56 -175 -107 -63 -63 -86
-73 -256 -118 -120 -32 -209 -73 -261 -120 -41 -36 -148 -85 -188 -85 -28 0
-113 55 -133 86 -12 18 -9 28 19 82 18 33 67 99 108 147 59 67 159 212 182
263 2 4 23 20 46 37 52 34 126 119 137 155 21 72 69 79 116 18 41 -55 74 -84
124 -110 35 -19 50 -20 150 -14 60 4 127 11 147 17 36 9 72 43 83 79 9 28 78
68 168 96 122 39 152 57 190 117 44 67 69 89 143 126 60 30 94 61 138 131 13
21 51 52 94 78 39 24 82 57 94 73 57 75 106 123 149 144 27 14 73 54 112 97
49 55 86 85 149 120 45 25 100 64 122 86 21 22 44 38 50 36 6 -3 22 -19 35
-36z m-1699 -360 c78 -48 81 -57 35 -113 -21 -26 -59 -64 -85 -84 -26 -20 -58
-51 -70 -69 -38 -54 -92 -101 -147 -128 -75 -37 -119 -86 -128 -139 -7 -51
-33 -75 -81 -75 -18 0 -47 -12 -70 -28 -35 -26 -47 -44 -88 -131 -8 -17 -28
-30 -66 -43 -61 -20 -151 -91 -176 -139 -17 -34 -122 -90 -252 -134 -62 -22
-97 -41 -139 -78 -106 -92 -113 -93 -180 -24 -41 41 -42 44 -54 146 -17 138
-1 190 85 274 32 32 75 83 96 115 43 66 190 214 247 247 21 13 69 36 107 51
51 20 85 43 133 90 35 34 76 67 91 72 15 6 74 18 132 27 132 20 211 45 280 91
74 48 105 64 170 85 77 25 99 23 160 -13z m11475 -170 c20 -17 45 -48 56 -69
19 -38 19 -38 -3 -96 -14 -40 -39 -77 -78 -118 -63 -66 -83 -101 -125 -220
-26 -71 -37 -87 -101 -150 -58 -56 -80 -87 -113 -157 -25 -52 -58 -104 -84
-130 -58 -58 -76 -86 -138 -206 -47 -93 -87 -142 -117 -142 -16 0 -68 -70
-102 -137 -22 -43 -42 -66 -71 -84 -66 -39 -110 -80 -146 -137 -33 -51 -66
-79 -154 -132 -22 -14 -54 -44 -70 -67 -29 -41 -96 -103 -112 -103 -17 0 -143
-54 -179 -76 l-37 -23 -53 24 c-29 13 -79 31 -110 39 -84 22 -120 54 -172 154
-26 52 -64 105 -91 132 -61 59 -69 75 -110 232 -35 128 -74 216 -114 252 -11
10 -18 27 -16 38 3 11 7 46 10 77 10 100 16 121 38 142 32 31 130 75 222 99
119 32 175 59 232 112 62 57 110 80 213 103 154 34 172 42 236 103 68 65 121
94 209 112 141 29 181 47 229 103 60 71 118 100 251 127 122 24 160 43 206
101 44 55 102 86 205 108 129 27 147 26 189 -11z m908 -49 c34 -17 73 -41 87
-53 37 -34 137 -99 205 -134 33 -16 73 -44 88 -60 l29 -30 -16 -108 c-16 -105
-17 -110 -54 -142 -20 -18 -79 -54 -131 -79 -52 -26 -106 -59 -121 -75 -25
-26 -28 -37 -34 -139 -8 -129 -6 -132 92 -195 31 -20 65 -53 82 -81 l30 -47
-24 -40 c-15 -26 -49 -57 -92 -86 -53 -35 -77 -59 -105 -105 -20 -34 -55 -74
-80 -92 -85 -62 -121 -97 -144 -143 -24 -46 -48 -70 -135 -133 -25 -18 -55
-50 -67 -72 -26 -47 -88 -112 -124 -130 -28 -15 -64 -55 -118 -132 -18 -26
-55 -65 -83 -87 -27 -21 -73 -70 -102 -110 -29 -40 -78 -93 -109 -119 -81 -70
-108 -148 -137 -396 -11 -92 -16 -107 -43 -138 -38 -43 -68 -59 -132 -67 -169
-24 -265 -58 -333 -117 -18 -16 -42 -31 -55 -33 -12 -3 -62 -12 -111 -21 l-88
-16 -30 28 c-39 36 -51 66 -83 203 -24 105 -61 200 -101 262 -21 31 -28 21
106 133 52 44 121 103 154 133 36 33 90 68 141 92 68 31 90 47 124 91 48 61
80 87 160 125 32 16 80 53 112 85 33 34 97 82 160 119 71 43 126 85 175 135
39 40 97 88 127 105 57 32 74 49 136 138 21 29 58 64 92 85 68 43 84 64 103
138 16 59 29 88 64 137 l24 32 -54 25 c-84 39 -111 41 -162 11 -25 -14 -54
-39 -66 -55 -25 -36 -117 -81 -225 -110 -122 -34 -133 -40 -180 -102 -25 -31
-60 -67 -79 -78 -79 -49 -236 -2 -236 71 0 13 18 50 41 83 22 33 49 77 60 98
11 21 50 71 87 111 37 40 85 105 107 145 31 58 51 81 98 114 47 33 69 58 102
117 32 57 55 84 96 113 73 51 95 74 114 113 24 51 64 94 122 131 29 18 60 44
70 58 67 95 85 113 142 144 36 19 91 63 134 107 86 86 98 89 190 43z m4977
-864 c25 -13 53 -32 63 -43 18 -19 17 -23 -12 -112 -17 -50 -31 -100 -31 -112
0 -13 -32 -51 -84 -102 -59 -57 -94 -99 -115 -143 -18 -36 -46 -74 -67 -90
-86 -66 -106 -89 -138 -157 -31 -68 -67 -114 -111 -141 -15 -10 -37 -11 -85
-4 -166 22 -143 26 -219 -45 -38 -36 -90 -76 -117 -89 -61 -31 -92 -65 -134
-144 -18 -35 -58 -86 -90 -117 -32 -30 -79 -86 -106 -123 -60 -86 -177 -207
-274 -286 -41 -33 -98 -83 -126 -111 -27 -28 -87 -71 -133 -96 -72 -38 -151
-107 -151 -130 0 -16 -83 -63 -161 -90 -121 -43 -165 -68 -195 -112 -37 -53
-91 -82 -196 -107 -106 -25 -191 -66 -238 -116 -43 -46 -110 -77 -215 -99
-162 -35 -183 -44 -240 -101 -67 -68 -107 -88 -252 -126 -141 -37 -141 -37
-189 -92 -62 -70 -107 -93 -249 -128 l-130 -32 -60 -62 c-33 -34 -79 -72 -102
-84 l-43 -21 -42 21 c-24 12 -57 36 -74 54 l-31 33 17 112 c15 106 15 119 -3
224 -16 101 -21 114 -51 144 l-33 33 -29 -24 c-16 -14 -35 -36 -41 -49 -6 -12
-28 -58 -48 -101 -29 -62 -57 -99 -134 -180 -53 -57 -107 -119 -119 -139 -13
-20 -56 -62 -96 -92 -40 -31 -88 -75 -106 -97 l-33 -41 21 -62 c11 -33 28 -87
37 -119 14 -50 22 -63 61 -90 27 -19 69 -36 107 -44 34 -7 84 -20 112 -29 52
-17 144 -15 315 6 41 5 142 17 225 25 82 9 158 21 170 27 11 6 50 39 86 73 69
65 86 73 254 128 97 31 100 33 145 92 38 50 60 67 134 105 67 35 103 62 150
112 52 56 80 75 191 131 107 54 135 73 157 106 30 44 77 77 148 105 70 27 118
63 139 104 10 20 28 45 39 56 23 20 227 76 279 76 65 0 166 -61 204 -124 17
-29 17 -30 -3 -60 -36 -52 -300 -310 -358 -350 -30 -21 -80 -64 -110 -97 -34
-36 -82 -74 -124 -97 -52 -28 -81 -52 -116 -97 -40 -51 -60 -67 -138 -106 -63
-31 -113 -66 -155 -107 -58 -55 -72 -63 -153 -87 -153 -45 -171 -54 -237 -118
-35 -34 -90 -78 -123 -98 -47 -28 -70 -51 -106 -106 -26 -39 -64 -86 -86 -104
-67 -59 -89 -103 -111 -226 -24 -132 -33 -152 -106 -234 -31 -34 -58 -72 -61
-84 -6 -23 40 -214 54 -226 14 -13 140 -50 189 -56 32 -3 87 1 148 13 l97 18
42 55 c34 46 56 63 126 98 60 30 104 61 150 106 79 78 80 79 210 112 128 33
151 44 189 97 40 56 97 90 202 122 117 35 173 61 201 94 46 53 89 81 170 108
120 39 176 68 239 123 33 27 86 60 125 75 142 57 167 71 223 126 65 63 141
103 240 128 60 15 72 23 136 88 39 39 84 79 101 87 51 26 255 76 324 79 60 3
66 5 78 31 24 50 92 56 92 9 0 -19 -29 -52 -45 -52 -29 0 -41 -43 -44 -147 -1
-46 -59 -107 -142 -148 -37 -19 -77 -48 -90 -65 -63 -83 -92 -108 -162 -143
-42 -21 -108 -67 -150 -105 -42 -37 -124 -94 -182 -127 -71 -40 -113 -71 -126
-91 -26 -43 -98 -108 -146 -132 -69 -36 -79 -55 -92 -175 -13 -118 -12 -120
39 -150 l31 -19 67 70 c53 55 76 72 112 81 25 7 90 26 145 44 97 30 102 34
171 104 40 40 77 73 83 73 6 0 44 16 84 34 50 24 92 54 132 95 52 52 76 68
175 110 122 52 134 61 192 132 26 33 59 57 121 87 68 34 96 55 142 107 46 52
74 74 140 106 57 28 111 66 171 120 54 49 114 91 160 114 59 29 83 48 117 93
42 55 88 95 164 140 24 14 55 49 83 93 30 48 61 81 95 104 83 55 93 70 116
186 21 103 21 105 4 214 -21 130 -30 149 -87 199 -81 71 -89 79 -104 109 -23
43 -5 78 85 167 42 42 91 95 110 119 18 23 53 52 77 64 41 19 50 20 122 10
115 -17 150 -32 183 -78 29 -40 29 -40 32 -220 6 -304 -8 -434 -82 -800 -38
-190 -69 -403 -82 -570 -24 -307 -38 -403 -64 -445 -14 -22 -39 -52 -55 -66
-16 -15 -47 -57 -69 -94 -50 -83 -93 -122 -166 -149 -76 -29 -111 -47 -170
-91 -27 -21 -93 -59 -145 -85 -94 -46 -133 -74 -151 -107 -10 -19 7 -55 60
-128 49 -68 54 -96 37 -200 -9 -49 -16 -93 -16 -98 0 -4 -17 -25 -37 -48 -200
-217 -221 -238 -279 -270 -34 -19 -84 -42 -110 -51 -59 -19 -127 -66 -144 -98
-22 -42 -93 -83 -190 -110 -137 -39 -159 -50 -218 -111 -52 -54 -72 -66 -199
-115 -37 -14 -87 -45 -125 -77 -64 -55 -134 -95 -223 -128 -66 -24 -98 -48
-145 -110 -30 -40 -56 -60 -117 -90 -52 -26 -98 -59 -138 -99 -33 -33 -87 -81
-119 -105 -132 -100 -209 -190 -286 -338 -20 -38 -52 -79 -80 -102 -64 -53
-84 -100 -120 -275 -17 -82 -40 -179 -51 -214 l-20 -63 51 -104 c27 -57 50
-108 50 -113 0 -5 17 -24 38 -43 34 -31 49 -36 133 -49 128 -19 502 -16 624 5
135 24 156 32 215 82 99 85 129 93 481 140 169 22 196 10 214 -102 6 -37 3
-46 -26 -78 -18 -21 -51 -47 -73 -58 -63 -32 -102 -66 -143 -120 -22 -31 -63
-67 -107 -95 -39 -25 -107 -80 -151 -123 -44 -43 -128 -125 -188 -181 -59 -57
-135 -137 -170 -178 -34 -41 -88 -102 -120 -134 -39 -40 -71 -86 -99 -142 -22
-46 -58 -100 -79 -121 l-39 -38 -66 32 c-36 18 -91 56 -122 85 -116 109 -363
382 -393 433 -18 31 -53 71 -84 96 -34 26 -66 64 -87 101 -43 76 -78 118 -138
162 -38 28 -58 54 -91 120 -30 60 -61 102 -104 145 -52 50 -69 76 -104 157
-61 142 -61 141 -119 191 -51 43 -112 131 -112 160 0 33 -71 163 -119 217 -76
86 -86 111 -135 337 -20 87 -17 98 39 147 43 37 83 55 162 71 133 28 176 47
227 101 63 66 124 93 270 118 126 22 156 36 220 109 42 47 92 70 209 93 137
27 147 32 232 109 l74 67 118 28 c134 31 168 48 220 111 36 44 107 94 134 94
7 0 58 14 112 31 93 30 100 35 149 91 40 46 68 67 127 94 124 57 135 64 197
122 53 49 139 99 262 150 17 8 42 27 54 43 59 77 92 109 142 134 30 15 71 44
91 65 l37 38 -7 66 c-4 37 -14 74 -22 81 -22 23 -63 30 -87 15 -47 -30 -100
-52 -171 -69 -98 -25 -190 -69 -240 -115 -54 -49 -112 -78 -223 -110 -113 -32
-155 -53 -219 -107 -56 -49 -123 -82 -225 -110 -94 -26 -162 -61 -214 -109
-56 -51 -98 -72 -227 -109 -132 -38 -159 -51 -220 -108 -60 -56 -124 -85 -262
-118 -129 -32 -172 -52 -203 -94 -51 -69 -144 -104 -309 -116 -84 -6 -96 -5
-146 18 -60 27 -127 90 -127 119 0 30 89 117 151 148 55 28 66 38 131 114 22
27 59 51 116 78 60 27 103 56 150 101 37 35 100 82 140 106 40 23 89 56 108
73 34 30 34 31 17 50 -36 41 -171 148 -186 148 -8 0 -30 -6 -48 -14 -19 -8
-78 -26 -133 -40 -54 -15 -133 -40 -175 -56 -64 -25 -84 -39 -126 -87 -38 -43
-66 -64 -125 -90 -60 -28 -91 -51 -155 -116 -69 -71 -90 -86 -155 -111 -121
-47 -183 -82 -212 -120 -43 -55 -139 -97 -234 -102 -44 -3 -96 -6 -117 -8 -72
-8 -197 56 -291 148 -39 38 -105 93 -146 122 -41 29 -92 75 -113 103 -33 45
-81 87 -160 143 -14 10 -46 49 -72 88 -26 39 -63 82 -83 97 -74 54 -95 80
-152 193 -46 89 -72 128 -116 169 -44 42 -66 74 -100 148 -35 76 -57 108 -108
157 -62 61 -65 67 -102 182 -37 114 -42 122 -100 179 -80 80 -96 105 -129 205
-36 111 -69 176 -100 196 -40 26 -90 113 -124 215 -17 53 -44 116 -59 140
l-28 44 18 50 c10 28 23 77 30 109 15 80 51 118 157 169 64 31 101 58 146 104
61 63 124 100 240 142 69 25 85 38 139 105 31 38 57 57 115 83 42 19 85 39 96
44 11 5 51 39 88 74 55 51 87 72 168 107 91 39 107 50 162 111 48 55 77 77
141 108 93 46 120 69 148 122 22 44 67 68 214 113 119 36 142 58 146 138 l3
61 60 3 c100 4 307 43 347 65 25 13 41 32 48 53 6 18 17 38 25 44 17 14 102
32 290 60 72 11 158 27 193 36 71 18 83 14 141 -48 41 -43 58 -100 71 -233 9
-101 12 -112 39 -139 l30 -29 63 66 c40 42 85 77 124 96 59 29 93 61 157 150
20 28 54 57 94 78 33 19 78 52 100 75 21 23 53 56 71 73 l33 32 108 -4 c105
-3 109 -2 152 27 68 44 244 240 279 309 38 77 68 104 160 148 43 21 98 58 130
88 71 68 116 89 258 127 151 39 207 63 260 111 71 63 138 88 281 104 169 18
313 54 358 90 20 15 45 36 57 45 43 33 121 67 141 61 11 -3 40 -16 65 -28z
m861 -182 c58 -62 60 -72 53 -315 -6 -206 -9 -227 -30 -270 -13 -25 -38 -59
-55 -75 -18 -15 -62 -58 -98 -94 -44 -44 -93 -80 -147 -108 -79 -40 -131 -82
-162 -129 -8 -12 -66 -54 -128 -93 -63 -39 -140 -95 -172 -125 -51 -49 -100
-78 -232 -138 -14 -6 -50 -36 -80 -67 -30 -31 -68 -64 -85 -72 -31 -15 -191
-47 -235 -47 -38 0 -141 53 -177 91 l-32 34 55 130 c31 72 66 141 77 154 12
13 47 37 76 54 56 32 121 91 155 141 12 19 62 49 153 94 113 56 140 73 163
107 38 56 99 109 158 139 37 19 57 38 85 84 34 55 51 70 153 135 27 16 52 46
74 84 42 75 54 88 118 129 33 22 63 52 84 85 21 35 50 64 91 90 55 36 61 37
86 25 14 -8 38 -27 52 -43z m-17769 -245 c25 -11 56 -30 68 -43 l22 -24 -39
-63 c-21 -35 -51 -88 -65 -119 -18 -38 -45 -72 -82 -105 -42 -36 -67 -70 -101
-135 -35 -68 -59 -100 -108 -143 -35 -30 -71 -70 -79 -88 -9 -18 -33 -69 -54
-113 -25 -52 -60 -103 -99 -145 -34 -36 -74 -92 -90 -125 -39 -83 -68 -119
-129 -164 -39 -29 -62 -57 -90 -110 -26 -50 -56 -87 -102 -128 -36 -32 -82
-85 -101 -118 -20 -33 -66 -90 -102 -126 -36 -37 -86 -90 -111 -119 -24 -29
-68 -68 -96 -86 -28 -18 -68 -56 -88 -84 -44 -61 -108 -104 -179 -120 -29 -7
-89 -23 -134 -36 -66 -20 -93 -23 -145 -18 -148 15 -139 10 -180 94 l-38 75 0
457 0 458 30 94 c46 143 82 178 278 269 13 6 43 35 68 64 60 69 96 87 235 114
131 25 157 36 220 94 65 61 96 74 224 96 134 23 184 43 266 109 72 58 124 79
292 119 155 38 183 50 252 111 63 55 146 92 185 84 14 -3 46 -15 72 -26z
m1266 -23 c39 -44 40 -47 51 -158 6 -61 13 -310 15 -552 3 -469 2 -483 -46
-580 -28 -55 -84 -112 -138 -139 -25 -13 -97 -40 -160 -60 -88 -28 -129 -47
-175 -82 -106 -80 -170 -105 -340 -129 -118 -17 -169 -38 -225 -89 -64 -60
-99 -74 -251 -100 -208 -36 -285 -64 -354 -127 -60 -55 -139 -82 -271 -93
-117 -9 -122 -9 -152 12 -17 13 -40 38 -53 58 -21 35 -21 36 -3 75 10 23 47
66 85 100 37 33 81 84 98 113 16 30 59 80 94 111 36 32 83 84 107 116 23 31
65 77 93 100 29 24 61 55 71 69 40 52 135 139 174 159 23 12 50 37 63 58 33
56 89 112 134 135 42 21 115 85 115 101 0 24 65 87 119 116 59 31 74 46 132
129 16 23 44 51 62 61 94 56 113 71 148 123 40 58 46 64 133 121 28 17 71 59
96 92 26 33 71 76 101 96 30 20 70 55 89 78 92 109 114 131 130 131 10 0 36
-20 58 -45z m15838 -1321 c65 -22 70 -28 47 -61 -27 -40 -39 -71 -53 -136 -13
-66 -31 -84 -168 -165 -51 -31 -116 -81 -153 -118 -40 -41 -89 -78 -130 -99
-37 -19 -81 -52 -103 -77 -21 -23 -50 -56 -63 -71 -14 -16 -56 -43 -92 -62
-66 -33 -93 -54 -160 -129 -22 -24 -73 -57 -145 -92 -88 -44 -124 -69 -171
-117 -44 -45 -84 -74 -150 -107 -75 -38 -96 -54 -133 -103 -49 -64 -64 -74
-207 -132 -120 -48 -122 -50 -159 -99 -36 -49 -101 -89 -185 -117 -94 -31
-137 -55 -190 -104 -78 -73 -149 -99 -334 -124 -76 -11 -157 -42 -157 -61 0
-14 -135 -80 -162 -80 -23 0 -88 56 -88 76 0 21 69 73 112 85 59 15 76 33 84
88 9 59 34 95 92 127 127 72 199 122 247 170 36 36 81 66 138 93 63 30 95 52
119 83 57 71 83 93 162 131 55 28 88 53 123 93 41 48 65 64 173 115 99 48 137
72 185 119 40 39 85 70 137 95 62 29 89 49 138 105 52 59 72 73 138 100 120
50 146 66 219 130 50 45 88 68 146 91 98 37 139 64 198 126 49 51 74 61 307
118 73 17 84 24 136 83 21 23 42 42 45 42 4 0 30 -7 57 -16z m-15627 -790 c61
-69 64 -89 59 -328 -3 -116 1 -346 8 -511 7 -181 10 -435 6 -640 -6 -375 -6
-367 -2 -615 4 -204 13 -370 36 -600 26 -278 41 -507 43 -687 1 -94 3 -179 5
-190 2 -10 7 -58 10 -108 4 -49 9 -97 11 -105 11 -44 33 -329 40 -505 6 -170
21 -398 34 -530 5 -44 9 -173 10 -286 1 -177 -1 -222 -20 -310 -12 -57 -30
-120 -40 -139 -39 -72 -145 -214 -182 -244 l-39 -31 -146 -1 c-81 0 -176 -6
-212 -13 -36 -6 -130 -14 -210 -18 -132 -5 -150 -4 -191 14 -59 26 -105 83
-90 111 17 33 66 68 143 105 69 33 112 70 161 141 9 14 46 41 81 61 36 20 82
54 103 76 21 22 70 73 109 112 83 84 98 110 130 229 13 49 29 98 35 110 9 17
5 26 -28 60 -43 44 -103 82 -166 104 -23 8 -72 35 -108 60 -58 40 -77 47 -160
61 -68 11 -132 14 -231 10 -147 -6 -177 -15 -263 -75 -85 -61 -220 -102 -331
-102 -121 0 -154 21 -154 98 0 33 6 45 32 67 42 35 114 69 205 95 54 15 77 27
90 47 50 75 92 104 265 181 61 28 71 37 112 100 27 43 63 84 92 104 88 62 100
79 119 158 11 43 20 129 23 200 3 106 0 144 -22 250 -34 166 -38 169 -177 177
-123 7 -151 0 -257 -64 -105 -64 -148 -81 -275 -109 -172 -39 -226 -60 -278
-109 -62 -58 -111 -81 -231 -111 -123 -30 -148 -43 -215 -106 -80 -75 -128
-92 -232 -85 -109 8 -142 15 -163 33 -23 21 -31 63 -17 81 16 18 100 61 194
98 92 37 110 49 129 90 21 43 63 78 146 120 49 25 83 52 128 103 40 45 88 85
134 112 39 24 112 80 161 126 61 58 112 95 163 121 41 20 87 51 102 69 15 18
41 49 58 71 19 23 57 51 97 70 64 32 79 46 137 129 18 26 56 58 101 85 56 34
83 58 114 103 24 36 60 72 90 92 68 44 97 77 134 156 22 47 48 81 87 116 51
45 58 57 75 122 28 109 32 155 20 270 -10 96 -14 107 -42 136 -17 18 -52 40
-78 50 -25 9 -80 34 -121 54 -41 20 -119 47 -173 60 l-97 24 -28 -22 c-68 -55
-202 -102 -362 -127 -67 -11 -143 -48 -193 -94 -57 -53 -89 -66 -269 -106
-170 -39 -220 -59 -274 -108 -56 -50 -113 -75 -217 -98 -166 -35 -188 -44
-242 -99 -71 -72 -117 -96 -246 -126 -138 -32 -175 -50 -214 -102 -61 -81
-113 -102 -259 -102 l-99 0 -43 44 c-24 24 -44 51 -44 59 0 31 63 88 135 122
56 27 85 49 128 99 48 54 73 72 169 120 85 43 128 73 176 119 40 40 89 75 135
98 56 27 82 48 120 95 37 46 67 70 137 109 51 28 117 76 153 111 44 41 95 77
165 113 88 45 108 60 144 109 52 70 67 82 145 122 34 17 75 47 90 66 15 19 41
50 57 69 18 23 66 55 137 91 76 39 131 76 184 124 58 52 92 75 148 96 39 15
82 39 95 53 12 14 43 50 69 79 25 28 50 52 55 52 27 0 164 77 210 118 78 71
110 90 198 123 101 37 124 51 161 106 44 64 94 91 202 109 51 9 94 18 96 20 2
2 17 4 32 4 20 0 38 -12 68 -46z m-1743 -488 c19 -19 34 -43 34 -53 0 -23 -66
-88 -100 -98 -39 -11 -69 -45 -81 -89 -16 -61 -49 -97 -125 -139 -82 -45 -97
-58 -146 -118 -32 -40 -52 -52 -162 -99 -118 -50 -130 -57 -181 -116 -42 -47
-72 -71 -123 -94 -93 -44 -134 -74 -171 -125 -35 -49 -115 -93 -243 -135 -60
-19 -74 -29 -127 -89 -35 -40 -77 -75 -101 -86 -42 -19 -42 -19 -85 4 -75 40
-93 67 -147 227 -43 127 -87 282 -88 306 0 4 22 32 48 62 26 30 61 81 76 113
66 135 99 156 283 178 164 19 270 46 347 89 117 65 260 97 511 111 108 7 245
32 301 57 16 7 44 25 63 41 36 31 146 87 170 87 7 0 28 -15 47 -34z m50 -1721
c57 -43 62 -65 26 -117 -16 -23 -54 -66 -84 -94 -30 -29 -79 -82 -108 -119
-30 -37 -74 -84 -100 -104 -25 -20 -77 -69 -114 -108 -37 -40 -91 -88 -119
-107 -29 -19 -72 -59 -97 -89 -26 -32 -72 -72 -110 -94 -37 -22 -80 -59 -98
-84 -57 -75 -82 -98 -153 -140 -48 -28 -81 -56 -109 -94 -53 -72 -85 -94 -215
-149 -94 -40 -117 -55 -165 -105 -77 -80 -134 -101 -280 -101 -107 0 -110 1
-144 30 -53 47 -69 91 -77 215 -6 98 -4 115 14 154 20 42 81 111 99 111 5 0
29 31 54 70 48 75 84 107 154 137 30 13 66 44 107 90 67 75 79 82 240 132 81
26 110 40 145 72 62 59 110 87 173 104 152 39 197 59 258 114 65 58 129 91
217 111 99 23 170 58 226 110 99 94 185 112 260 55z m17994 -455 l28 -45 -14
-104 c-16 -124 -34 -183 -84 -276 -40 -76 -68 -154 -99 -283 -12 -46 -34 -112
-51 -148 -27 -55 -46 -76 -147 -161 -63 -54 -140 -121 -169 -150 -40 -38 -73
-58 -126 -78 -116 -43 -149 -62 -214 -123 -66 -64 -109 -82 -291 -122 -131
-28 -196 -55 -255 -106 -71 -60 -134 -81 -297 -99 -162 -17 -247 -44 -330
-107 -68 -52 -153 -87 -207 -88 -50 0 -140 44 -168 83 l-20 27 59 61 c33 33
81 73 106 89 25 17 63 55 84 85 40 58 60 76 135 118 25 13 59 44 77 68 62 85
81 103 144 139 40 22 76 52 96 80 18 25 42 57 53 72 12 15 53 44 91 64 49 26
86 56 126 101 37 41 79 76 122 100 98 54 149 90 217 153 52 48 155 110 183
110 9 0 54 51 99 109 13 18 62 51 113 77 73 38 97 56 132 102 37 49 56 63 157
114 63 31 140 78 170 103 30 25 86 61 124 80 67 34 69 35 98 17 16 -9 42 -37
58 -62z m-18906 -1285 c17 -8 37 -24 44 -36 16 -24 1 -46 -55 -80 -38 -24 -59
-20 -97 20 -24 25 -26 32 -16 51 11 20 66 60 83 60 5 0 23 -7 41 -15z m992
-846 c13 -12 26 -35 30 -52 6 -28 2 -36 -36 -69 -58 -52 -141 -82 -206 -74
-89 10 -143 42 -158 92 -9 28 56 85 128 114 70 28 207 22 242 -11z m-1604 -35
c46 -15 92 -32 102 -40 18 -12 18 -14 2 -20 -29 -11 -76 -91 -93 -159 -13 -54
-23 -71 -58 -103 -23 -20 -61 -48 -85 -62 -24 -14 -61 -51 -86 -86 -24 -34
-56 -69 -70 -79 -25 -16 -26 -16 -63 23 -35 37 -39 46 -50 129 -17 138 -16
148 26 194 20 22 63 54 94 70 34 17 73 48 96 74 30 36 86 84 100 85 1 0 39
-12 85 -26z m19477 -19 c17 -20 31 -43 31 -53 0 -9 5 -51 10 -92 6 -41 17
-131 25 -200 l15 -125 -25 -50 c-30 -63 -62 -94 -145 -139 -174 -96 -206 -107
-443 -151 -156 -29 -176 -37 -249 -102 -66 -58 -108 -77 -238 -103 -112 -23
-195 -21 -236 5 -29 19 -41 93 -20 133 19 38 81 90 145 125 37 19 61 42 85 80
41 63 56 77 125 113 30 16 68 46 85 68 74 91 99 115 156 145 38 20 81 56 117
97 64 71 107 96 278 159 55 21 107 44 116 51 17 15 120 74 130 74 4 0 21 -16
38 -35z m-1329 -36 c0 -5 -9 -9 -20 -9 -22 0 -27 16 -7 23 15 5 27 -1 27 -14z
m-17061 -157 c41 -30 48 -48 26 -72 -26 -29 -88 -60 -118 -60 -13 0 -41 15
-63 34 -36 31 -38 35 -26 57 7 13 27 34 45 46 37 26 96 24 136 -5z m156 -629
c13 -10 31 -31 40 -46 16 -27 16 -29 -2 -50 -25 -30 -56 -56 -66 -57 -5 0 -56
-18 -114 -40 -99 -37 -109 -44 -176 -113 -49 -51 -85 -78 -112 -87 -63 -21
-129 -66 -178 -123 -45 -52 -87 -78 -238 -145 -53 -24 -74 -41 -110 -87 -43
-57 -71 -76 -183 -126 -30 -14 -76 -49 -115 -90 -53 -53 -77 -70 -119 -82 -89
-27 -169 -40 -204 -33 -83 16 -208 98 -208 137 0 10 5 19 10 19 6 0 37 55 69
123 33 67 70 132 83 143 12 12 63 43 112 68 49 25 112 68 141 95 62 59 121 90
236 125 73 22 96 34 149 82 76 67 94 76 230 104 149 31 229 57 275 90 157 115
180 123 338 115 91 -4 124 -9 142 -22z m16912 -272 c16 -26 -5 -44 -41 -35
-32 8 -33 17 -3 37 29 21 30 20 44 -2z m1324 -136 c18 -14 44 -43 57 -63 20
-33 22 -49 21 -142 -2 -115 -16 -185 -53 -257 -41 -80 -58 -91 -171 -103 -55
-6 -116 -13 -135 -16 -19 -3 -81 -11 -137 -19 -56 -8 -143 -22 -192 -30 -123
-22 -632 -26 -707 -7 -29 7 -58 15 -65 16 -45 9 -73 31 -83 64 -7 20 0 26 56
52 78 36 193 66 306 80 48 6 117 15 153 20 80 10 125 30 199 86 79 60 127 82
259 115 149 38 213 68 270 126 40 40 145 101 177 103 5 0 26 -11 45 -25z
m-16457 -264 c38 -40 45 -84 45 -312 l1 -186 -30 -41 c-57 -79 -34 -76 -570
-68 -446 6 -510 9 -585 21 -33 6 -105 71 -105 95 0 25 69 84 140 118 36 17 94
56 130 88 81 71 155 106 290 139 133 32 172 48 240 94 99 67 144 81 340 104
32 4 68 -14 104 -52z m14809 -376 c48 -15 63 -26 88 -62 l30 -44 -23 -19 c-65
-53 -210 -104 -278 -96 -19 2 -66 5 -103 5 -66 1 -69 2 -114 44 -38 36 -45 48
-40 68 9 36 64 109 89 118 12 4 82 7 157 6 101 -1 151 -6 194 -20z"/>
<path d="M21313 11558 c-17 -23 -36 -61 -43 -82 -8 -24 -34 -59 -66 -90 -29
-28 -84 -81 -121 -117 -66 -64 -150 -109 -202 -109 -35 0 -176 -32 -204 -47
-15 -8 -37 -28 -47 -46 -30 -49 -73 -185 -66 -211 7 -29 103 -201 120 -215 10
-8 28 -1 77 32 35 23 100 55 144 71 126 44 212 94 253 145 21 25 76 86 123
136 135 140 163 212 148 380 -10 117 -13 127 -57 168 l-30 29 -29 -44z"/>
<path d="M24332 8707 c-26 -10 -30 -15 -20 -25 6 -6 26 -12 44 -12 37 0 60 20
42 38 -14 14 -23 14 -66 -1z"/>
</g>
</svg>
